<?xml version="1.0" encoding="UTF-8" standalone="no"?>
<!-- Created with Inkscape (http://www.inkscape.org/) -->

<svg
   xmlns:dc="http://purl.org/dc/elements/1.1/"
   xmlns:cc="http://creativecommons.org/ns#"
   xmlns:rdf="http://www.w3.org/1999/02/22-rdf-syntax-ns#"
   xmlns:svg="http://www.w3.org/2000/svg"
   xmlns="http://www.w3.org/2000/svg"
   xmlns:xlink="http://www.w3.org/1999/xlink"
   xmlns:sodipodi="http://sodipodi.sourceforge.net/DTD/sodipodi-0.dtd"
   xmlns:inkscape="http://www.inkscape.org/namespaces/inkscape"
   id="svg2"
   version="1.1"
   inkscape:version="0.48.4 r9939"
   width="2481"
   height="663"
   sodipodi:docname="Pepper-and-Carrot_by-David-Revoy_E07P00.svg">
  <metadata
     id="metadata8">
    <rdf:RDF>
      <cc:Work
         rdf:about="">
        <dc:format>image/svg+xml</dc:format>
        <dc:type
           rdf:resource="http://purl.org/dc/dcmitype/StillImage" />
        <dc:title />
      </cc:Work>
    </rdf:RDF>
  </metadata>
  <defs
     id="defs6" />
  <sodipodi:namedview
     pagecolor="#ffffff"
     bordercolor="#666666"
     borderopacity="1"
     objecttolerance="10"
     gridtolerance="10"
     guidetolerance="10"
     inkscape:pageopacity="0"
     inkscape:pageshadow="2"
     inkscape:window-width="1680"
     inkscape:window-height="1033"
     id="namedview4"
     showgrid="false"
     inkscape:zoom="0.70085903"
     inkscape:cx="1122.0067"
     inkscape:cy="286.74399"
     inkscape:window-x="1920"
     inkscape:window-y="0"
     inkscape:window-maximized="1"
     inkscape:current-layer="layer1" />
  <g
     inkscape:groupmode="layer"
     id="layer2"
     inkscape:label="artwork"
     sodipodi:insensitive="true">
    <image
       sodipodi:absref="/home/deevad/Production/Webcomics/2015-04-30_ep07_The-Wish/lang/ar/../gfx_Pepper-and-Carrot_by-David-Revoy_E07P00.png"
       xlink:href="../gfx_Pepper-and-Carrot_by-David-Revoy_E07P00.png"
       y="0"
       x="0"
       id="image10"
       height="663"
       width="2481" />
  </g>
  <g
     inkscape:groupmode="layer"
     id="layer1"
     inkscape:label="txt"
     style="display:inline">
    <flowRoot
       xml:space="preserve"
       id="flowRoot2987"
       style="font-style:normal;font-variant:normal;font-weight:normal;font-stretch:normal;font-size:12px;line-height:125%;font-family:Arial;-inkscape-font-specification:Arial;letter-spacing:0px;word-spacing:0px;display:inline;fill:#244440;fill-opacity:1;stroke:none"
       transform="translate(-748.44912,-120.8471)"><flowRegion
         id="flowRegion2989"><rect
           id="rect2991"
           width="2405.8"
           height="107.55731"
           x="739.22333"
           y="644.36664"
           style="fill:#244440;fill-opacity:1" /></flowRegion><flowPara
         id="flowPara2993"
         style="font-style:normal;font-variant:normal;font-weight:normal;font-stretch:normal;font-size:100px;font-family:AlHor;-inkscape-font-specification:AlHor;text-align:center;text-anchor:middle;fill:#244440;fill-opacity:1">حلقة ٧ : الأُمنية</flowPara></flowRoot>    <path
       style="fill:#22403d;fill-opacity:1"
       d="m 765.88038,490.21905 c 0,-3.23557 -3.31718,-5.58753 -7.41374,-5.25654 -3.53767,0.28583 -3.70737,0.17409 -4.88868,-3.21918 -1.9788,-5.68396 -0.45112,-9.25969 7.3974,-17.31462 5.8937,-6.04873 15.63733,-19.27662 17.20142,-23.35258 0.29995,-0.78167 1.63619,-1.36321 3.13231,-1.36321 4.98245,0 7.59223,-5.01337 5.26672,-10.11731 -0.78851,-1.7306 -0.0815,-4.30635 4.15808,-15.14919 2.80948,-7.18523 7.13535,-19.96355 9.61306,-28.39627 4.8165,-16.39266 5.84039,-18.94499 8.60275,-21.4449 1.574,-1.42445 1.89139,-1.44882 2.90845,-0.22334 1.62133,1.95359 6.62644,1.73808 8.53184,-0.36737 0.86756,-0.95863 2.15877,-1.51986 2.86938,-1.24718 2.34477,0.89978 5.54629,7.78988 8.93265,19.22426 3.99373,13.48526 5.67192,16.97132 10.81893,22.4739 5.48501,5.86392 10.94781,7.72852 20.11477,6.86572 3.80796,-0.35841 9.6946,-0.71426 13.08143,-0.79078 6.42934,-0.14527 8.7234,-1.50824 8.7234,-5.18285 0,-0.84829 1.41329,-2.3762 3.14066,-3.39537 10.10342,-5.96116 38.04718,-28.83444 49.50688,-40.52369 l 6.19995,-6.32414 -9.17912,-5.95661 c -8.98664,-5.8317 -9.14974,-5.99854 -7.77826,-7.95661 0.77047,-1.1 1.40086,-2.92432 1.40086,-4.05406 0,-4.87502 -7.17194,-7.50866 -10.73759,-3.94301 -1.69025,1.69025 -1.85904,1.57481 -10.21975,-6.98969 -8.54937,-8.75774 -14.45071,-16.13023 -17.25606,-21.55784 l -1.51373,-2.92866 -3.68806,2.32816 c -6.46912,4.08379 -11.47123,5.78391 -17.01737,5.78391 -4.36661,0 -5.74747,-0.40396 -8.07467,-2.36217 -5.94672,-5.00383 -6.97978,-11.34616 -3.11225,-19.10726 2.66228,-5.34252 13.0635,-16.11103 22.46619,-23.25956 l 6.31326,-4.79974 0.65222,6.93514 c 0.77973,8.29107 3.55024,12.97282 9.68295,16.36281 l 3.94181,2.17892 -2.91384,-5.33555 c -2.29482,-4.2021 -3.09439,-7.04235 -3.76379,-13.37003 -0.46749,-4.41896 -0.67456,-8.20989 -0.46016,-8.4243 0.76119,-0.76118 8.91748,7.49987 12.86092,13.02611 3.32583,4.66072 3.84261,5.91343 3.05028,7.39392 -0.52467,0.98037 -0.95395,2.43639 -0.95395,3.23561 0,2.13951 4.1089,5.87623 6.49775,5.90918 1.51675,0.0209 3.08206,1.52799 5.85471,5.63685 5.32477,7.89088 11.78514,14.90383 19.90111,21.60332 13.94373,11.51013 23.74249,15.19972 56.5831,21.30562 16.6048,3.08725 21.6782,4.84108 20.7204,7.16285 -1.4473,3.50854 -1.467,4.79669 -0.1056,6.87452 0.7884,1.20336 2.2905,2.4599 3.3378,2.79231 4.1262,1.3096 -0.9742,9.86573 -8.0048,13.42838 -3.0481,1.54461 -7.0856,2.44648 -14.4237,3.22196 l -10.19077,1.07692 -2.16233,-2.3332 c -3.79329,-4.09302 -11.26743,-2.05115 -11.26743,3.07816 0,0.99209 -0.53881,1.80379 -1.19734,1.80379 -2.00383,0 -12.25441,4.43586 -16.24275,7.02892 -2.06494,1.34254 -10.11384,8.34964 -17.88645,15.57134 -13.34527,12.3994 -14.30686,13.10994 -17.27312,12.76365 -3.98904,-0.46569 -7.17185,2.33913 -6.75458,5.95244 0.24127,2.0893 -0.65766,3.13095 -6.48411,7.5136 -15.72179,11.82589 -30.01912,17.68931 -45.1973,18.53568 -12.02608,0.6706 -13.68837,0.27715 -14.80873,-3.50507 -0.50636,-1.70941 -1.91611,-3.51882 -3.36261,-4.31587 -2.26174,-1.24628 -2.74458,-1.2277 -5.25233,0.20205 -1.89088,1.07806 -3.24503,1.31578 -4.29483,0.75395 -1.94358,-1.04018 -9.55403,-9.17945 -13.62089,-14.56736 l -3.11123,-4.12187 -4.2013,10.43514 c -9.32098,23.15133 -21.80519,44.74922 -32.83398,56.80331 -6.86129,7.49916 -15.81624,11.62926 -15.81624,7.29458 z m 436.41282,-9.4092 c -3.6589,-2.48634 -7.5664,-10.2816 -6.631,-13.22871 0.314,-0.98935 6.2573,-7.36004 13.2074,-14.1571 12.0718,-11.8061 14.168,-14.34786 15.5623,-18.8693 l 0.6171,-2.00155 -4.2804,1.89341 c -7.5999,3.36181 -18.4879,1.53425 -28.4266,-4.77144 -4.016,-2.54794 -4.1737,-2.80718 -3.7284,-6.12751 0.6611,-4.9285 -2.1359,-7.709 -6.9761,-6.93501 -3.292,0.52641 -3.5501,0.37426 -6.6247,-3.90541 -3.8096,-5.30257 -8.1358,-13.6938 -11.0452,-21.42339 -1.9986,-5.30982 -2.0331,-5.75117 -0.6394,-8.17955 1.865,-3.24974 1.0045,-7.13812 -1.8695,-8.44764 -1.8014,-0.82074 -2.1902,-1.83244 -2.6744,-6.95901 -0.8233,-8.71549 -0.711,-14.77203 0.4404,-23.75002 0.8724,-6.80209 1.2638,-7.95266 2.7056,-7.95266 4.6363,0 6.9756,-7.33687 3.4602,-10.85228 l -1.8334,-1.83333 3.5463,-7.5674 c 7.0819,-15.11261 11.5513,-19.43774 20.0685,-19.42062 5.5611,0.0112 10.3876,1.3496 19.1141,5.30034 l 6.1432,2.78115 -1.844,-2.34421 c -2.0481,-2.60363 -8.1908,-6.741 -12.2877,-8.27627 -2.326,-0.87164 -2.0347,-0.93779 2.2964,-0.52143 10.8516,1.04316 24.2224,9.40356 33.4862,20.93791 6.3714,7.93318 13.756,21.38247 16.7187,30.4494 l 2.3855,7.3004 -1.944,1.94402 c -1.0692,1.06921 -1.9441,2.95865 -1.9441,4.19876 0,2.44249 2.8375,5.86232 4.8639,5.86232 1.8913,0 2.4053,2.1454 3.349,13.97937 0.9884,12.39387 0.4776,22.73581 -1.6815,34.04655 -1.4645,7.67176 -1.5765,7.89158 -4.0189,7.89158 -3.1384,0 -6.1201,2.87704 -6.1201,5.90539 0,1.31754 1.0029,3.22724 2.3509,4.47648 l 2.3508,2.17868 -5.1064,10.61948 c -5.9515,12.37678 -14.8907,26.13357 -20.5705,31.65644 -3.709,3.60662 -4.1582,3.80254 -6.3884,2.78639 -3.0504,-1.38985 -6.4968,0.0123 -7.9683,3.24178 -1.3174,2.89134 -3.8826,2.91487 -8.0635,0.074 z m 18.8598,-83.48045 c 3.0304,-0.008 6.7875,-4.09916 6.2668,-6.82363 -0.4636,-2.42494 0.1475,-2.61621 4.4326,-1.38726 2.5525,0.73205 2.8771,0.6038 3.237,-1.27904 1.252,-6.54908 -3.5234,-23.09364 -11.5232,-39.92362 -4.4619,-9.38689 -4.8147,-10.55821 -3.5886,-11.91312 1.7983,-1.98708 1.7305,-6.22052 -0.1328,-8.27928 -1.6412,-1.81363 -7.0401,-2.2637 -8.0257,-0.66905 -0.3809,0.61647 -1.6558,-0.036 -3.4353,-1.75809 -7.9123,-7.65747 -16.4497,-7.05082 -20.7573,1.47496 -3.4983,6.92405 -4.5064,13.77939 -4.5397,30.86918 -0.033,17.04502 0.9881,22.12091 6.2885,31.25422 5.3491,9.21739 15.8147,18.02706 22.8507,19.23501 l 3.2491,0.55784 1.8038,-5.67627 c 1.5224,-4.7907 2.1268,-5.67716 3.8741,-5.68185 z m -548.16782,58.33906 c 0,-3.07828 -1.94982,-5.20603 -5.4213,-5.91602 -2.66611,-0.54528 -3.17371,-1.08821 -3.78982,-4.05356 -0.8679,-4.1772 -0.89464,-4.13615 10.40382,-15.9699 6.82627,-7.14968 9.55834,-10.80759 12.48805,-16.71998 2.06258,-4.16246 4.31102,-7.5681 4.99653,-7.5681 1.90669,0 5.67389,-4.19172 5.67389,-6.31327 0,-1.03718 -0.97629,-2.86207 -2.16955,-4.05533 -2.10462,-2.10462 -2.18157,-2.67684 -2.57171,-19.12427 -0.34624,-14.59639 -0.73777,-18.26236 -2.81485,-26.35558 -1.65007,-6.42943 -2.12002,-9.69349 -1.48681,-10.3267 2.42732,-2.42731 -0.0566,-9.58405 -3.32645,-9.58405 -1.27724,0 -6.57813,-19.34293 -6.54981,-23.90023 0.0565,-9.08906 3.10965,-14.26334 9.05063,-15.3383 l 3.20893,-0.58063 -0.38114,3.26475 c -0.5078,4.34962 1.68245,6.79187 6.09108,6.79187 l 3.28023,0 2.88898,7.89158 c 3.89223,10.63211 5.93215,18.66797 9.18135,36.16813 5.53316,29.80149 6.91178,53.22275 3.94535,67.0272 -1.47644,6.87072 -1.52729,6.95285 -3.99875,6.45856 -1.90207,-0.38041 -3.05915,0.0552 -4.8178,1.81387 -2.90935,2.90935 -2.93692,5.46369 -0.0897,8.3109 l 2.2248,2.2248 -2.67308,4.53358 c -9.01565,15.29057 -19.01488,23.3368 -29.05887,23.38323 -3.87949,0.0179 -4.284,-0.17681 -4.284,-2.06255 z m 284.09698,1.39781 c -6.34481,-3.1343 -9.26039,-8.65056 -9.39155,-17.76875 -0.0863,-5.99849 1.31042,-8.70163 6.23492,-12.06698 5.31148,-3.62979 5.86232,-3.51691 5.86232,1.20136 0,4.16565 1.85335,9.44933 3.91613,11.16443 0.77676,0.64583 1.04429,-1.01869 1.04429,-6.49726 l 0,-7.36553 2.60673,0.18712 c 5.77724,0.4147 10.58349,8.13873 10.58349,17.00852 0,10.2443 -3.41218,13.94922 -13.33321,14.47709 -3.39365,0.18057 -6.77905,0.0276 -7.52312,-0.34 z m 483.29894,-5.68265 c -5.7202,-1.35365 -13.4115,-5.1734 -13.4115,-6.66065 0,-2.13366 -3.3355,-5.01005 -5.8097,-5.01005 -1.6273,0 -3.2883,-1.41178 -6.3646,-5.40973 -11.7651,-15.2896 -18.171,-37.70802 -20.3509,-71.22085 -1.1924,-18.33188 -0.7592,-38.70018 0.9645,-45.35075 0.9332,-3.60054 1.453,-4.28401 3.258,-4.28401 4.8038,0 7.3889,-6.28529 4.3623,-10.60636 -1.6445,-2.3479 -0.8219,-4.46402 2.8617,-7.3616 4.6397,-3.6495 10.3165,-1.52355 15.6083,5.84517 3.9021,5.43346 4.4382,10.08251 2.0919,18.13988 -0.9864,3.38717 -2.2881,8.51831 -2.8928,11.40252 -0.7061,3.36857 -1.6359,5.43353 -2.5999,5.77393 -4.4349,1.5661 -6.2076,6.96862 -3.3299,10.14843 1.0478,1.15776 1.1638,2.50156 0.5508,6.37949 -0.9704,6.13846 0.2859,20.84141 2.507,29.34223 l 1.6676,6.38196 -2.1245,1.89232 c -4.4376,3.95268 -1.3571,11.66935 4.3254,10.83533 2.4613,-0.36123 2.929,0.0606 6.1513,5.54758 6.2106,10.57546 13.6021,16.06289 22.7227,16.86898 5.1538,0.4555 6.0137,0.27829 8.7938,-1.81228 5.6368,-4.23873 9.6859,-12.14496 13.0945,-25.56869 1.5693,-6.17994 2.7688,-9.01818 4.4825,-10.60641 2.8422,-2.63401 3.0225,-6.08146 0.4527,-8.6513 -1.2108,-1.21085 -1.7103,-2.56339 -1.3937,-3.77406 1.2005,-4.59071 -1.4123,-47.80153 -4.2198,-69.78892 l -2.8972,-22.68928 2.0424,-1.81912 c 2.5821,-2.30001 2.6969,-6.71233 0.2384,-9.17077 -0.992,-0.99208 -2.3511,-1.80379 -3.0201,-1.80379 -0.859,0 -1.8024,-3.51102 -3.211,-11.95011 -1.0969,-6.57256 -3.613,-19.66131 -5.5913,-29.08612 -4.8694,-23.19948 -4.9653,-24.35604 -2.4297,-29.31159 1.7999,-3.51787 2.5473,-4.13302 5.6105,-4.61765 3.4486,-0.54563 5.936,-2.65111 5.936,-5.02463 0,-0.75072 1.164,-1.18047 3.1976,-1.18047 4.9909,0 7.0734,2.7998 9.3754,12.60498 3.2809,13.97498 8.931,53.2002 11.3054,78.48644 2.8851,30.7258 7.6587,64.84764 11.8603,84.77815 3.6819,17.46488 11.726,41.79628 15.482,46.82881 2.3382,3.13299 4.581,4.39582 5.4204,3.05208 0.4642,-0.74294 5.1342,-1.15285 15.0811,-1.32374 13.5394,-0.2326 14.5312,-0.36926 16.438,-2.26491 1.1161,-1.10956 2.0293,-2.86598 2.0293,-3.90316 0,-1.78858 -3.0662,-5.63262 -5.1093,-6.40551 -1.1616,-0.43943 -11.5307,-19.35431 -14.0308,-25.59449 -7.6332,-19.05199 -10.1823,-31.54088 -9.4725,-46.40912 0.6095,-12.76898 0.8897,-13.5842 4.6691,-13.5842 5.49,0 7.9217,-6.30572 4.0294,-10.44885 l -1.8762,-1.9971 5.0095,-4.93013 c 9.511,-9.3602 23.8537,-11.36285 36.1715,-5.05055 15.4063,7.895 29.033,29.62282 34.2172,54.55917 3.1348,15.0785 2.5664,36.4115 -0.9702,36.4115 -2.0037,0 -4.8373,3.43413 -4.8373,5.86232 0,1.24011 0.8321,3.08685 1.8492,4.10389 l 1.8491,1.84913 -2.4823,5.14055 c -1.3652,2.8273 -2.6264,5.41312 -2.8027,5.74628 -0.1761,0.33315 2.413,1.91015 5.7535,3.50444 4.9867,2.37994 7.5103,2.98064 14.1009,3.35642 l 8.0273,0.45769 4.744,-5.0168 c 5.8039,-6.13753 7.4115,-10.97209 8.7643,-26.35676 0.8711,-9.908 0.7152,-12.91237 -1.8459,-35.54602 -2.5,-22.09281 -2.653,-24.88315 -1.4377,-26.22598 2.0763,-2.29426 1.7149,-6.80871 -0.6993,-8.73584 -1.9635,-1.56737 -2.3213,-3.9915 -7.696,-52.14991 -3.1003,-27.77838 -5.6234,-51.79151 -5.6069,-53.36252 0.044,-4.24652 3.0394,-10.40077 6.1741,-12.68683 1.6382,-1.19477 4.7806,-2.25199 7.721,-2.59756 4.8779,-0.57331 4.9876,-0.53478 6.7555,2.37235 0.9884,1.62531 2.4916,5.78904 3.3404,9.25272 1.4333,5.8487 1.438,6.47602 0.065,8.80055 -2.089,3.53645 -1.8532,5.20949 1.1269,7.99326 2.8911,2.70069 3.2796,4.80688 5.94,32.19899 1.0506,10.81669 1.0983,14.21058 0.2318,16.50607 -0.9226,2.44428 -0.8478,3.31301 0.4859,5.6367 1.1613,2.0235 2.1765,8.72223 3.8541,25.43206 2.6094,25.99016 6.288,56.4112 7.8906,65.25419 1.0515,5.80177 1.0139,6.12582 -0.9372,8.07697 -1.1181,1.11799 -2.0328,2.8813 -2.0328,3.91848 0,2.12879 3.7696,6.31327 5.6874,6.31327 0.7882,0 1.8608,2.2195 2.8644,5.92672 2.0039,7.40307 8.981,18.29586 14.0894,21.99627 3.5045,2.53866 4.3476,2.74144 11.3984,2.74144 6.2483,0 8.0253,0.32353 9.9071,1.80379 2.8516,2.24303 4.8025,2.27811 7.5651,0.13606 1.5033,-1.16561 4.3869,-1.83565 9.5773,-2.22541 16.782,-1.26021 25.2852,-6.36149 33.0462,-19.82518 l 2.4946,-4.32759 -5.0276,2.8374 c -4.6776,2.63985 -5.4163,2.79229 -10.6107,2.18942 -19.2797,-2.23765 -35.4937,-15.23285 -43.9271,-35.20675 -7.3186,-17.33341 -8.8394,-45.10122 -3.5907,-65.55928 0.7437,-2.89868 1.2295,-3.3821 3.3989,-3.3821 4.8033,0 7.3935,-6.35176 4.0823,-10.01068 -2.0366,-2.25036 -1.0075,-4.58768 4.5071,-10.23598 7.8886,-8.08006 12.4699,-7.80244 29.1145,1.76434 l 8.8487,5.08594 -4.9604,-5.06912 c -2.7283,-2.78801 -6.9037,-6.31968 -9.2787,-7.84816 -2.3751,-1.52847 -4.1657,-2.9317 -3.9791,-3.1183 0.9188,-0.91875 10.4415,1.78921 15.1876,4.31884 7.143,3.80715 12.2596,8.44281 18.5865,16.83917 6.8024,9.0274 14.3142,23.40848 12.9433,24.77939 -2.6345,2.63436 -0.019,9.64952 3.5972,9.64952 1.5927,0 4.6473,8.49389 6.811,18.9398 2.0046,9.67762 2.2349,34.83878 0.4209,45.99666 -1.727,10.62338 -5.8719,24.22691 -9.7159,31.88778 -4.5859,9.13929 -6.3588,11.40319 -8.9302,11.40319 -2.804,0 -5.8009,2.98006 -5.8009,5.76829 0,1.59168 -1.1283,2.88272 -4.284,4.90218 -11.5306,7.37874 -18.3868,8.51488 -48.9278,8.1078 -22.135,-0.29503 -23.1977,-0.39086 -28.3075,-2.55272 -8.1416,-3.44455 -16.5235,-12.03609 -21.0856,-21.61321 l -3.6405,-7.64238 -1.0654,4.0348 c -2.7115,10.26953 -11.6632,21.2583 -20.6324,25.32778 -2.3015,1.04419 -6.9281,2.11281 -10.2814,2.37473 -5.723,0.44699 -6.2321,0.33041 -8.2995,-1.90037 -2.5065,-2.70464 -5.4602,-3.03258 -8.4502,-0.93826 -1.3466,0.94318 -2.8904,1.2324 -4.4847,0.84016 -2.1208,-0.52178 -16.9238,-8.32083 -25.0701,-13.20834 l -2.7973,-1.67823 -5.1207,3.66688 c -7.0199,5.02682 -15.5834,8.75166 -24.8133,10.79296 -10.017,2.2154 -13.175,2.20559 -15.4286,-0.048 -0.9921,-0.99208 -2.8184,-1.80379 -4.0585,-1.80379 -2.5333,0 -5.8623,2.86194 -5.8623,5.0397 0,1.17884 -0.6779,1.32472 -3.8331,0.82483 -12.3906,-1.96308 -22.1443,-12.28923 -25.1164,-26.59029 l -1.0272,-4.9426 -1.7062,6.71856 c -0.9384,3.6952 -2.8768,8.96327 -4.3075,11.70681 -2.3045,4.41887 -2.9898,5.05207 -6.0047,5.54737 -4.0124,0.6592 -5.8054,2.74428 -5.8054,6.75132 0,2.51946 -0.5557,3.21777 -4.1676,5.23641 -6.6111,3.6951 -12.4858,5.04908 -21.4746,4.94952 -4.4984,-0.0499 -9.6519,-0.43919 -11.4524,-0.86524 z m 147.5072,-85.17517 c -0.055,-9.98792 -0.4405,-13.75736 -1.8452,-18.0379 -1.3405,-4.08509 -1.5602,-6.01035 -0.8965,-7.85525 1.25,-3.47474 -0.51,-6.92366 -3.8768,-7.59703 -2.0247,-0.40494 -3.6281,-2.00145 -6.799,-6.77005 -4.7609,-7.15984 -8.4775,-9.58435 -12.4037,-8.09159 -3.6099,1.37246 -5.1097,5.21644 -5.7213,14.66366 -0.4476,6.91452 -0.2051,9.73576 1.3456,15.65026 2.5612,9.76894 12.2996,29.13849 18.7309,37.25603 l 5.2223,6.5916 3.1566,-6.5916 3.1567,-6.59159 -0.07,-12.62654 z m 166.3942,-1.87908 c 0.2088,-0.20879 0.2972,-3.91373 0.1964,-8.23317 -0.1008,-4.31946 0.2794,-8.9704 0.8448,-10.33543 0.9716,-2.34562 7.0331,-6.15822 9.7907,-6.15822 2.5249,0 -2.6032,-17.67922 -9.0084,-31.05676 -7.1414,-14.91524 -14.1771,-21.24447 -20.6401,-18.56744 -6.3336,2.62345 -9.8881,12.59565 -10.6158,29.7825 -0.5514,13.01915 0.3812,18.80068 4.2754,26.50753 1.4766,2.92215 2.6847,6.47336 2.6847,7.89158 0,3.05626 2.816,6.18618 5.5658,6.18618 1.0771,0 2.6736,0.64737 3.5479,1.43859 3.3721,3.05176 11.3348,4.56852 13.3586,2.54464 z M 805.98815,322.55631 c -7.92411,-1.97936 -15.43557,-9.33479 -17.54937,-17.18484 -1.89505,-7.03767 0.34925,-15.43272 4.92768,-18.43263 l 2.32522,-1.52355 3.46621,7.53826 c 3.22784,7.01984 8.30649,14.18077 10.05725,14.18077 0.41736,0 -0.18489,-2.13396 -1.33836,-4.74213 -2.55,-5.76603 -5.45855,-15.86224 -4.76845,-16.55234 0.94686,-0.94686 8.31858,2.9781 11.35928,6.04807 4.41346,4.45597 7.31088,11.13196 7.32146,16.8695 0.0185,10.0259 -6.85944,16.03237 -15.80092,13.79889 z M 1553.0534,255.3637 c 0.7009,-6.00339 -5.9351,-9.10405 -10.0294,-4.68625 -1.6113,1.73867 -2.2876,1.96123 -3.4258,1.12737 -5.2614,-3.85433 -5.8591,-15.22898 -1.1964,-22.77062 3.5278,-5.706 7.167,-7.73902 14.6806,-8.20117 5.0816,-0.31256 6.5745,-0.0439 9.6224,1.73163 3.1237,1.81968 3.6785,2.62942 4.1364,6.0366 0.5248,3.90526 2.5361,6.38144 5.1834,6.38144 1.062,0 1.2018,1.02514 0.741,5.43399 -0.9332,8.92792 -4.7521,13.96224 -12.5725,16.57404 -6.6258,2.21283 -7.563,1.99926 -7.1397,-1.62703 z m 165.6793,-16.8284 c -4.0343,-1.18418 -9.4829,-6.09739 -11.3704,-10.25301 -1.8339,-4.03773 -2.3916,-14.94508 -0.7642,-14.94508 1.7788,0 5.3704,-4.42762 5.3704,-6.62045 0,-3.11766 4.6387,-5.10806 11.8609,-5.08935 7.2837,0.0189 11.8476,2.4541 15.8928,8.48001 l 2.9517,4.39696 -2.6457,1.60893 c -4.681,2.8467 -4.7329,7.80361 -0.1113,10.61423 l 2.5344,1.54122 -2.3894,3.51312 c -4.3125,6.34065 -13.1753,9.14684 -21.3292,6.75342 z M 837.1301,221.09888 c 0,-8.09465 4.39182,-12.52148 23.58231,-23.77031 9.76654,-5.72481 13.47031,-7.44063 16.0614,-7.44063 3.34781,0 5.49758,-1.50793 6.59731,-4.62759 0.39117,-1.10969 19.82668,-13.15637 24.30316,-15.06379 2.26302,-0.96427 -0.38479,11.11931 -3.19557,14.58339 -2.59298,3.19565 -50.38461,30.43519 -51.52035,29.36478 -1.49233,-1.40649 -6.45936,-0.88528 -8.02237,0.84182 -0.82095,0.90713 -1.49262,2.6583 -1.49262,3.89148 0,1.67448 -0.79922,2.62327 -3.15664,3.74745 l -3.15663,1.50529 0,-3.03189 z m 665.6932,-25.87611 c -2.5794,-1.03182 -2.8571,-0.71948 4.415,-4.96554 3.2242,-1.88259 8.8705,-5.55351 12.5472,-8.15758 5.3594,-3.7959 7.1805,-4.63555 9.1846,-4.23474 3.1386,0.62772 7.3905,-3.17862 6.9941,-6.26118 -0.1829,-1.42317 1.0474,-3.25081 4.2223,-6.27186 l 4.4804,-4.26342 -4.3149,-3.72481 c -4.5214,-3.90298 -7.2155,-8.27747 -8.1652,-13.25832 -1.1204,-5.87598 3.4422,-20.38068 6.7402,-21.42741 2.3402,-0.74278 4.7,-4.52921 4.1452,-6.65112 -0.2998,-1.14647 0.4981,-2.6243 2.3754,-4.39966 4.0009,-3.78354 6.1577,-4.69402 11.1102,-4.69018 8.6917,0.006 13.6784,5.93565 13.9726,16.61287 0.1483,5.38422 -0.038,6.02704 -2.2536,7.76974 -2.614,2.05622 -3.2243,5.90949 -1.3988,8.83259 0.7957,1.27413 0.6193,2.52583 -0.8121,5.76168 l -1.8286,4.13394 4.0934,2.93968 4.0935,2.93968 -0.5757,8.11001 c -0.3167,4.4605 -0.5757,9.27949 -0.5757,10.70887 0,2.31938 -0.194,2.49504 -1.8038,1.6335 -1.1811,-0.63212 -1.8038,-1.88841 -1.8038,-3.63931 0,-4.88518 -4.7631,-7.6573 -9.1359,-5.31706 -1.3076,0.69983 -2.1521,0.674 -3.0777,-0.0942 -1.0323,-0.85675 -2.1822,-0.0608 -6.0301,4.17405 -17.2885,19.02698 -26.2296,24.77509 -38.3598,24.66099 -3.343,-0.0315 -7.0502,-0.44601 -8.2384,-0.92126 z m 53.9913,-61.35585 c -2.0567,-7.63835 -13.0106,-12.23779 -13.6211,-5.71938 -0.4885,5.21646 1.9945,8.73843 10.081,14.29887 l 3.117,2.14339 0.6611,-3.69179 c 0.3637,-2.03048 0.2565,-5.19448 -0.238,-7.03109 z m 114.5686,39.71407 -2.2548,-0.94884 3.6076,-2.10977 c 9.8547,-5.76315 20.4256,-13.29384 29.2638,-20.84743 5.3805,-4.59844 10.0811,-8.84362 10.4459,-9.43372 0.4094,-0.66252 -0.9468,-2.44894 -3.5457,-4.6704 -7.2626,-6.20786 -9.4494,-12.78045 -7.3147,-21.98481 2.5443,-10.97123 10.4998,-23.760657 16.8094,-27.02347 3.6251,-1.874635 5.8094,-1.603336 8.4641,1.051276 1.9428,1.942871 2.873,2.246792 5.4166,1.769635 2.8957,-0.543247 3.1785,-0.365114 4.958,3.123029 3.5081,6.876302 1.9072,23.46683 -3.2276,33.44875 -1.1639,2.26269 -1.0521,2.47156 2.8056,5.24193 3.908,2.80651 4.0147,3.01319 3.9057,7.56426 -0.061,2.57339 -0.366,7.42882 -0.6764,10.78983 l -0.5644,6.11093 -8.4324,-5.45945 -8.4323,-5.45943 -3.4428,3.91112 c -3.0435,3.45767 -3.807,3.86858 -6.586,3.54416 -4.4055,-0.51432 -7.3267,2.41268 -6.6387,6.65209 0.4427,2.7283 0.08,3.39416 -3.6222,6.65321 -6.8133,5.9973 -13.0705,8.56603 -21.4688,8.81341 -3.9684,0.1169 -8.2298,-0.21445 -9.4699,-0.73631 z m 54.0858,-61.35955 c -2.1654,-8.04169 -13.0655,-12.1595 -13.8337,-5.22608 -0.1325,1.19513 -0.7204,3.05945 -1.3067,4.14293 -1.5957,2.94925 -1.3084,4.63361 1.2217,7.16372 1.9035,1.90355 2.8496,2.19866 5.6368,1.75831 2.5253,-0.39897 3.9041,-0.0956 5.6041,1.23315 l 2.2548,1.76231 0.661,-3.74753 c 0.3637,-2.06114 0.2565,-5.2502 -0.238,-7.08681 z"
       id="path4705"
       inkscape:connector-curvature="0" />
  </g>
</svg>
