<?xml version="1.0" encoding="UTF-8" standalone="no"?>
<!-- Created with Inkscape (http://www.inkscape.org/) -->

<svg
   xmlns:dc="http://purl.org/dc/elements/1.1/"
   xmlns:cc="http://creativecommons.org/ns#"
   xmlns:rdf="http://www.w3.org/1999/02/22-rdf-syntax-ns#"
   xmlns:svg="http://www.w3.org/2000/svg"
   xmlns="http://www.w3.org/2000/svg"
   xmlns:xlink="http://www.w3.org/1999/xlink"
   xmlns:sodipodi="http://sodipodi.sourceforge.net/DTD/sodipodi-0.dtd"
   xmlns:inkscape="http://www.inkscape.org/namespaces/inkscape"
   id="svg2"
   version="1.1"
   inkscape:version="0.91 r13725"
   width="2481"
   height="663"
   sodipodi:docname="Pepper-and-Carrot_by-David-Revoy_E07P00.svg">
  <metadata
     id="metadata8">
    <rdf:RDF>
      <cc:Work
         rdf:about="">
        <dc:format>image/svg+xml</dc:format>
        <dc:type
           rdf:resource="http://purl.org/dc/dcmitype/StillImage" />
        <dc:title />
      </cc:Work>
    </rdf:RDF>
  </metadata>
  <defs
     id="defs6" />
  <sodipodi:namedview
     pagecolor="#ffffff"
     bordercolor="#666666"
     borderopacity="1"
     objecttolerance="10"
     gridtolerance="10"
     guidetolerance="10"
     inkscape:pageopacity="0"
     inkscape:pageshadow="2"
     inkscape:window-width="1366"
     inkscape:window-height="705"
     id="namedview4"
     showgrid="false"
     inkscape:zoom="0.70085903"
     inkscape:cx="1127.0006"
     inkscape:cy="302.43902"
     inkscape:window-x="-8"
     inkscape:window-y="-8"
     inkscape:window-maximized="1"
     inkscape:current-layer="layer1" />
  <g
     inkscape:groupmode="layer"
     id="layer2"
     inkscape:label="artwork"
     sodipodi:insensitive="true">
    <image
       sodipodi:absref="C:\Users\Mahwiii\Desktop\Manga\translations\pepper carrot\peppercarrot_ep07_translation-master\ar\..\gfx_Pepper-and-Carrot_by-David-Revoy_E07P00.png"
       xlink:href="../gfx_Pepper-and-Carrot_by-David-Revoy_E07P00.png"
       width="2481"
       height="663"
       id="image10"
       x="0"
       y="0" />
  </g>
  <g
     inkscape:groupmode="layer"
     id="layer1"
     inkscape:label="txt"
     style="display:inline">
    <flowRoot
       xml:space="preserve"
       id="flowRoot2987"
       style="font-style:normal;font-variant:normal;font-weight:normal;font-stretch:normal;font-size:12px;line-height:125%;font-family:Arial;-inkscape-font-specification:Arial;letter-spacing:0px;word-spacing:0px;display:inline;fill:#244440;fill-opacity:1;stroke:none"
       transform="translate(-748.44912,-120.8471)"><flowRegion
         id="flowRegion2989"><rect
           id="rect2991"
           width="2405.8"
           height="107.55731"
           x="739.22333"
           y="644.36664"
           style="fill:#244440;fill-opacity:1" /></flowRegion><flowPara
         id="flowPara2993"
         style="font-style:normal;font-variant:normal;font-weight:normal;font-stretch:normal;font-size:100px;font-family:AlHor;-inkscape-font-specification:AlHor;text-align:center;text-anchor:middle;fill:#244440;fill-opacity:1">حلقة ٧ : الأُمنية</flowPara></flowRoot>    <path
       style="fill:#22403d;fill-opacity:1"
       d="m 715.81901,497.25881 c 0,-3.58752 -3.67801,-6.19532 -8.22018,-5.82833 -3.92248,0.31693 -4.11064,0.19303 -5.42045,-3.56935 -2.19404,-6.30224 -0.50019,-10.26692 8.20206,-19.19804 6.5348,-6.70668 17.3383,-21.37345 19.07253,-25.89278 0.33258,-0.8667 1.81417,-1.5115 3.47303,-1.5115 5.52442,0 8.41809,-5.5587 5.83962,-11.21783 -0.87429,-1.91885 -0.0904,-4.77478 4.61038,-16.79706 3.11508,-7.96681 7.9115,-22.13511 10.65873,-31.48511 5.34042,-18.17579 6.47568,-21.00576 9.53852,-23.77759 1.74522,-1.5794 2.09713,-1.60642 3.22482,-0.24764 1.7977,2.1661 7.34724,1.92714 9.45991,-0.40733 0.96192,-1.06291 2.39359,-1.68519 3.18149,-1.38284 2.59983,0.99765 6.1496,8.63723 9.90431,21.3154 4.42816,14.95213 6.2889,18.8174 11.99578,24.91852 6.08165,6.50178 12.13867,8.5692 22.30278,7.61255 4.22217,-0.39739 10.74914,-0.79195 14.50438,-0.8768 7.12869,-0.16107 9.67229,-1.6723 9.67229,-5.74662 0,-0.94056 1.56703,-2.63467 3.48229,-3.7647 11.20243,-6.60959 42.18581,-31.97094 54.89206,-44.93171 l 6.87435,-7.01205 -10.17759,-6.60455 c -9.96417,-6.46605 -10.14501,-6.65104 -8.62435,-8.8221 0.85428,-1.21965 1.55324,-3.24242 1.55324,-4.49505 0,-5.4053 -7.95207,-8.32542 -11.90558,-4.37191 -1.87411,1.87411 -2.06126,1.74611 -11.33142,-7.75 -9.47934,-9.71038 -16.0226,-17.88482 -19.13311,-23.90282 l -1.67839,-3.24723 -4.08923,2.58141 c -7.17281,4.528 -12.71902,6.41306 -18.86845,6.41306 -4.8416,0 -6.37266,-0.4479 -8.95301,-2.61912 -6.59358,-5.54813 -7.73901,-12.58035 -3.45079,-21.18568 2.95188,-5.92366 14.4845,-17.86353 24.90998,-25.78964 l 7,-5.32184 0.72316,7.68952 c 0.86455,9.19294 3.93642,14.38395 10.73623,18.14269 l 4.37058,2.41594 -3.23079,-5.91594 c -2.54445,-4.65918 -3.43099,-7.80839 -4.17321,-14.82437 -0.51834,-4.89964 -0.74793,-9.10293 -0.51021,-9.34066 0.84399,-0.84398 9.88749,8.31568 14.25988,14.44304 3.6876,5.1677 4.2606,6.55667 3.38208,8.1982 -0.58174,1.08701 -1.05772,2.70142 -1.05772,3.58757 0,2.37224 4.55585,6.51542 7.20455,6.55196 1.68174,0.0232 3.41732,1.6942 6.49157,6.25 5.90398,8.74923 13.06708,16.52502 22.06588,23.95325 15.46047,12.76216 26.3251,16.85309 62.738,23.62317 18.41099,3.42307 24.03629,5.36767 22.97429,7.942 -1.6047,3.89018 -1.6266,5.31845 -0.1171,7.6223 0.8742,1.33426 2.5397,2.72748 3.7009,3.09605 4.575,1.45205 -1.0802,10.93888 -8.8756,14.88907 -3.37967,1.71262 -7.85629,2.7126 -15.99267,3.57243 l -11.29922,1.19406 -2.39755,-2.587 c -4.2059,-4.53824 -12.49305,-2.27426 -12.49305,3.413 0,1.1 -0.59742,2 -1.32759,2 -2.22179,0 -13.58739,4.91837 -18.00957,7.79349 -2.28956,1.48858 -11.21399,9.25789 -19.83207,17.26514 -14.79692,13.74816 -15.86311,14.53599 -19.15203,14.15203 -4.42295,-0.51635 -7.95197,2.59357 -7.48932,6.59992 0.26752,2.31657 -0.72919,3.47153 -7.18942,8.3309 -17.43195,13.11227 -33.28449,19.61349 -50.11369,20.55192 -13.33424,0.74355 -15.17734,0.3073 -16.41957,-3.88633 -0.56144,-1.89536 -2.12454,-3.90159 -3.72838,-4.78534 -2.50777,-1.38184 -3.04313,-1.36124 -5.82366,0.22403 -2.09657,1.19533 -3.59802,1.45891 -4.76201,0.83596 -2.155,-1.15332 -10.59328,-10.17795 -15.10252,-16.15194 l -3.44966,-4.57023 -4.6583,11.57023 c -10.33488,25.66965 -24.17708,49.61688 -36.40553,62.98217 -7.60764,8.31489 -17.53668,12.89424 -17.53668,8.08805 z m 483.88419,-10.4327 c -4.0569,-2.75679 -8.3895,-11.39999 -7.3523,-14.66768 0.3481,-1.09696 6.9379,-8.16063 14.644,-15.69705 13.3849,-13.09032 15.7092,-15.90857 17.2551,-20.92183 l 0.6843,-2.21927 -4.746,2.09936 c -8.4266,3.7275 -20.499,1.70114 -31.5188,-5.29045 -4.4528,-2.8251 -4.6277,-3.11254 -4.1339,-6.79404 0.733,-5.46461 -2.3683,-8.54756 -7.735,-7.68938 -3.6501,0.58367 -3.9363,0.41497 -7.3453,-4.33022 -4.224,-5.87937 -9.0208,-15.18336 -12.2467,-23.75375 -2.216,-5.8874 -2.2542,-6.37676 -0.7089,-9.06929 2.0679,-3.60323 1.1138,-7.91458 -2.0729,-9.36654 -1.9973,-0.91002 -2.4284,-2.03177 -2.9653,-7.71599 -0.9128,-9.66353 -0.7883,-16.37887 0.4883,-26.33345 0.9673,-7.542 1.4013,-8.81772 3,-8.81772 5.1406,0 7.7343,-8.13495 3.8365,-12.03275 l -2.0328,-2.03276 3.932,-8.39055 c 7.8523,-16.75651 12.8079,-21.55211 22.2515,-21.53312 6.166,0.0124 11.5176,1.4964 21.1933,5.87689 l 6.8114,3.08367 -2.0446,-2.5992 c -2.2708,-2.88685 -9.0817,-7.47426 -13.6243,-9.17653 -2.579,-0.96646 -2.256,-1.0398 2.5462,-0.57816 12.032,1.15664 26.8572,10.42645 37.1287,23.21546 7.0645,8.79612 15.2524,23.70838 18.5373,33.76157 l 2.645,8.09451 -2.1555,2.15549 c -1.1855,1.18551 -2.1555,3.28048 -2.1555,4.65548 0,2.70818 3.1461,6.5 5.393,6.5 2.097,0 2.6669,2.37877 3.7133,15.5 1.0959,13.74202 0.5295,25.20892 -1.8645,37.75 -1.6238,8.50627 -1.7479,8.75 -4.456,8.75 -3.4798,0 -6.7858,3.18999 -6.7858,6.54775 0,1.46086 1.112,3.57829 2.6066,4.96342 l 2.6065,2.41567 -5.6619,11.77463 c -6.5988,13.72308 -16.5104,28.97628 -22.808,35.0999 -4.1125,3.99894 -4.6106,4.21617 -7.0834,3.08949 -3.3822,-1.54104 -7.2035,0.0136 -8.835,3.59441 -1.4607,3.20585 -4.305,3.23194 -8.9406,0.082 z m 20.9113,-92.56113 c 3.36,-0.009 7.5258,-4.54506 6.9484,-7.56588 -0.514,-2.68872 0.1636,-2.9008 4.9148,-1.53816 2.8302,0.81167 3.1901,0.66947 3.5891,-1.41817 1.3882,-7.26147 -3.9066,-25.60568 -12.7766,-44.26637 -4.9473,-10.40796 -5.3385,-11.70669 -3.979,-13.20898 1.9939,-2.20323 1.9187,-6.89716 -0.1472,-9.17987 -1.8198,-2.01091 -7.8059,-2.50994 -8.8987,-0.74183 -0.4224,0.68353 -1.836,-0.0399 -3.809,-1.94932 -8.773,-8.49042 -18.239,-7.81779 -23.0152,1.6354 -3.8788,7.67722 -4.9966,15.27826 -5.0335,34.22701 -0.037,18.89911 1.0956,24.52714 6.9725,34.65394 5.931,10.22002 17.535,19.98797 25.3363,21.32732 l 3.6026,0.61852 2,-6.29372 c 1.688,-5.31181 2.3581,-6.29469 4.2955,-6.29989 z m -607.79548,64.68496 c 0,-3.41313 -2.16191,-5.77232 -6.011,-6.55954 -2.95612,-0.6046 -3.51894,-1.20658 -4.20207,-4.49449 -0.9623,-4.63159 -0.99195,-4.58607 11.53551,-17.70705 7.56881,-7.9274 10.59806,-11.9832 13.84645,-18.53872 2.28694,-4.61523 4.77996,-8.39133 5.54004,-8.39133 2.11409,0 6.29107,-4.64768 6.29107,-7 0,-1.15 -1.08249,-3.1734 -2.40554,-4.49645 -2.33356,-2.33356 -2.41888,-2.96802 -2.85146,-21.20454 -0.3839,-16.18413 -0.81802,-20.24887 -3.12103,-29.22244 -1.82956,-7.1288 -2.35063,-10.74791 -1.64854,-11.45 2.69135,-2.69135 -0.0628,-10.62657 -3.68829,-10.62657 -1.41617,0 -7.29368,-21.44698 -7.26228,-26.5 0.0626,-10.07774 3.44791,-15.81486 10.03513,-17.00675 l 3.55798,-0.64379 -0.4226,3.61988 c -0.56303,4.82276 1.86547,7.53066 6.75365,7.53066 l 3.63704,0 3.20323,8.75 c 4.31562,11.78863 6.57743,20.6986 10.18007,40.10237 6.13503,33.04318 7.66361,59.01211 4.37451,74.31816 -1.63705,7.61809 -1.69343,7.70916 -4.43372,7.1611 -2.10897,-0.42179 -3.39192,0.0612 -5.34186,2.01117 -3.22582,3.22582 -3.25639,6.05801 -0.0995,9.21493 l 2.46681,2.46681 -2.96385,5.02672 c -9.99634,16.95383 -21.08324,25.87529 -32.21978,25.92678 -4.30149,0.0199 -4.75,-0.19605 -4.75,-2.28691 z m 314.99999,1.54986 c -7.03498,-3.47524 -10.2677,-9.59154 -10.41313,-19.70157 -0.0957,-6.65098 1.45296,-9.64816 6.91313,-13.37958 5.88924,-4.02463 6.5,-3.89947 6.5,1.33204 0,4.61877 2.05495,10.47719 4.34211,12.37885 0.86125,0.71608 1.15789,-1.1295 1.15789,-7.20401 l 0,-8.16672 2.89028,0.20747 c 6.40566,0.45981 11.73472,9.02404 11.73472,18.85865 0,11.35863 -3.78335,15.46656 -14.78355,16.05185 -3.7628,0.20021 -7.51645,0.0306 -8.34145,-0.37698 z m 535.87039,-6.30079 c -6.3425,-1.5009 -14.8704,-5.73614 -14.8704,-7.38517 0,-2.36575 -3.6983,-5.55503 -6.4416,-5.55503 -1.8043,0 -3.646,-1.56534 -7.057,-5.99818 -13.0448,-16.95274 -20.1475,-41.80975 -22.5645,-78.96798 -1.3221,-20.32596 -0.8418,-42.90984 1.0694,-50.28384 1.0347,-3.99219 1.611,-4.75 3.6124,-4.75 5.3263,0 8.1926,-6.96899 4.8368,-11.76008 -1.8234,-2.6033 -0.9113,-4.9496 3.173,-8.16237 5.1443,-4.04648 11.4387,-1.68928 17.3061,6.48098 4.3265,6.0245 4.9209,11.17925 2.3194,20.11307 -1.0937,3.75562 -2.537,9.4449 -3.2074,12.64284 -0.783,3.735 -1.8139,6.02457 -2.8827,6.402 -4.9174,1.73646 -6.8829,7.72664 -3.6922,11.25234 1.1618,1.2837 1.2904,2.77367 0.6107,7.07343 -1.0759,6.80618 0.317,23.10846 2.7798,32.53396 l 1.8489,7.07617 -2.3555,2.09816 c -4.9203,4.38264 -1.5048,12.9387 4.7959,12.01396 2.729,-0.40053 3.2476,0.0672 6.8204,6.15102 6.8861,11.72582 15.0817,17.81015 25.1944,18.70392 5.7144,0.50505 6.6678,0.30857 9.7503,-2.00941 6.25,-4.6998 10.7395,-13.46604 14.5189,-28.34995 1.74,-6.85218 3.07,-9.99915 4.9701,-11.76014 3.1513,-2.92053 3.3513,-6.74298 0.5019,-9.59235 -1.3425,-1.34257 -1.8963,-2.84223 -1.5453,-4.18459 1.3311,-5.09007 -1.5659,-53.0012 -4.6788,-77.3803 l -3.2123,-25.15733 2.2645,-2.017 c 2.863,-2.5502 2.9903,-7.44247 0.2644,-10.16833 -1.1,-1.1 -2.6069,-2 -3.3487,-2 -0.9524,0 -1.9984,-3.89294 -3.5602,-13.25 -1.2163,-7.2875 -4.0061,-21.8 -6.1995,-32.25 -5.3991,-25.72303 -5.5054,-27.0054 -2.694,-32.5 1.9957,-3.90052 2.8244,-4.58259 6.2207,-5.11994 3.8238,-0.60498 6.5817,-2.93948 6.5817,-5.57119 0,-0.83238 1.2907,-1.30887 3.5455,-1.30887 5.5338,0 7.8428,3.10435 10.3952,13.9761 3.6378,15.49512 9.9025,58.98712 12.5351,87.0239 3.199,34.06804 8.4918,71.90152 13.1505,94 4.0824,19.36464 13.0015,46.34272 17.166,51.92267 2.5926,3.47379 5.0793,4.87398 6.0101,3.38407 0.5147,-0.82375 5.6926,-1.27825 16.7215,-1.46773 15.0122,-0.2579 16.1119,-0.40942 18.2261,-2.51128 1.2375,-1.23025 2.25,-3.17773 2.25,-4.32773 0,-1.98313 -3.3997,-6.24531 -5.665,-7.10227 -1.288,-0.48723 -12.785,-21.4596 -15.5571,-28.37857 -8.4635,-21.12439 -11.2899,-34.97178 -10.5029,-51.45733 0.6758,-14.15794 0.9865,-15.06183 5.177,-15.06183 6.0872,0 8.7834,-6.99164 4.4677,-11.58544 l -2.0802,-2.21434 5.5544,-5.46641 c 10.5455,-10.37837 26.4484,-12.59886 40.1061,-5.59993 17.0821,8.75379 32.1911,32.84508 37.9392,60.49391 3.4758,16.71868 2.8455,40.37221 -1.0758,40.37221 -2.2216,0 -5.3634,3.80768 -5.3634,6.5 0,1.375 0.9226,3.42263 2.0503,4.55029 l 2.0503,2.05028 -2.7524,5.69972 c -1.5137,3.13484 -2.9121,6.00194 -3.1075,6.37133 -0.1953,0.36939 2.6754,2.11793 6.3793,3.88565 5.5291,2.63882 8.3273,3.30486 15.6348,3.72151 l 8.9004,0.50748 5.2601,-5.56251 c 6.4352,-6.80515 8.2177,-12.16559 9.7176,-29.22375 0.9659,-10.98575 0.793,-14.31693 -2.0467,-39.41258 -2.7719,-24.49598 -2.9415,-27.58985 -1.5941,-29.07874 2.3022,-2.54383 1.9015,-7.54934 -0.7753,-9.6861 -2.1771,-1.73786 -2.5738,-4.42568 -8.5332,-57.82258 -3.4375,-30.8 -6.2351,-57.42519 -6.2168,-59.16709 0.049,-4.70844 3.3701,-11.53213 6.8457,-14.06686 1.8164,-1.32473 5.3007,-2.49695 8.5609,-2.88011 5.4085,-0.63567 5.5301,-0.59295 7.4903,2.6304 1.096,1.80211 2.7627,6.41875 3.7038,10.2592 1.5892,6.4849 1.5944,7.18046 0.072,9.75784 -2.3163,3.92113 -2.0548,5.77616 1.2494,8.86274 3.2056,2.99446 3.6364,5.32975 6.5862,35.70147 1.1648,11.99329 1.2177,15.75636 0.257,18.30154 -1.023,2.71016 -0.94,3.67339 0.5387,6.24984 1.2877,2.24361 2.4133,9.671 4.2734,28.19846 2.8932,28.81728 6.9719,62.5474 8.7489,72.3523 1.1659,6.43286 1.1242,6.79216 -1.0392,8.95555 -1.2397,1.2396 -2.2539,3.19472 -2.2539,4.34472 0,2.36035 4.1797,7 6.3061,7 0.8739,0 2.0632,2.46093 3.1759,6.57141 2.2219,8.20835 9.958,20.28602 15.622,24.38894 3.8857,2.81481 4.8206,3.03965 12.6383,3.03965 6.928,0 8.8983,0.35872 10.9848,2 3.1617,2.48701 5.3249,2.52591 8.388,0.15085 1.6668,-1.29239 4.8641,-2.03532 10.6191,-2.46748 18.6074,-1.39729 28.0356,-7.05347 36.6408,-21.98169 l 2.7659,-4.79832 -5.5744,3.14604 c -5.1864,2.927 -6.0055,3.09602 -11.7649,2.42757 -21.3769,-2.48105 -39.3546,-16.88982 -48.7054,-39.0364 -8.1146,-19.21888 -9.8009,-50.00717 -3.9812,-72.69057 0.8246,-3.21399 1.3632,-3.75 3.7686,-3.75 5.3258,0 8.1977,-7.04268 4.5263,-11.0996 -2.2581,-2.49515 -1.117,-5.08671 4.9974,-11.34941 8.7467,-8.95898 13.8263,-8.65116 32.2815,1.95625 l 9.8112,5.63917 -5.5,-5.62052 c -3.025,-3.09128 -7.6546,-7.00711 -10.288,-8.70185 -2.6334,-1.69473 -4.6188,-3.2506 -4.4119,-3.4575 1.0187,-1.01868 11.5773,1.98384 16.8396,4.78863 7.92,4.22128 13.5932,9.36119 20.6083,18.67087 7.5423,10.00937 15.8712,25.95477 14.3512,27.4748 -2.921,2.92092 -0.021,10.69916 3.9885,10.69916 1.766,0 5.1528,9.41782 7.5519,21 2.2227,10.73032 2.478,38.62841 0.4667,51 -1.9149,11.77896 -6.5106,26.86223 -10.7728,35.35642 -5.0847,10.13342 -7.0505,12.64358 -9.9016,12.64358 -3.109,0 -6.4319,3.30422 -6.4319,6.39575 0,1.76481 -1.251,3.19629 -4.75,5.43542 -12.7848,8.18137 -20.3868,9.44109 -54.25,8.98973 -24.5427,-0.32712 -25.721,-0.43337 -31.3866,-2.83039 -9.0273,-3.81924 -18.3209,-13.34533 -23.3793,-23.96421 l -4.0365,-8.4737 -1.1812,4.4737 c -3.0065,11.38661 -12.9319,23.57069 -22.8768,28.08284 -2.5518,1.15777 -7.6817,2.34263 -11.3997,2.63304 -6.3455,0.49561 -6.91,0.36635 -9.2023,-2.10709 -2.7792,-2.99883 -6.0541,-3.36245 -9.3694,-1.04032 -1.4931,1.04578 -3.2048,1.36646 -4.9725,0.93155 -2.3515,-0.57853 -18.7647,-9.22593 -27.7972,-14.64509 l -3.1015,-1.86078 -5.6777,4.06575 c -7.7835,5.57362 -17.2785,9.70363 -27.5124,11.96698 -11.1066,2.45638 -14.6082,2.4455 -17.1069,-0.0532 -1.1,-1.1 -3.125,-2 -4.5,-2 -2.8088,0 -6.5,3.17325 -6.5,5.5879 0,1.30707 -0.7516,1.46881 -4.25,0.91455 -13.7384,-2.17662 -24.5531,-13.62601 -27.8485,-29.48268 l -1.1389,-5.48024 -1.8918,7.44938 c -1.0405,4.09715 -3.1897,9.93826 -4.7761,12.98023 -2.5551,4.89954 -3.315,5.60162 -6.6578,6.1508 -4.4489,0.7309 -6.4369,3.04279 -6.4369,7.4857 0,2.79351 -0.6162,3.56779 -4.6209,5.80601 -7.3303,4.09703 -13.844,5.5983 -23.8106,5.4879 -4.9877,-0.0553 -10.7018,-0.48696 -12.6981,-0.95935 z m 163.5525,-94.4402 c -0.061,-11.07437 -0.4885,-15.25384 -2.046,-20 -1.4863,-4.52945 -1.7299,-6.66413 -0.994,-8.70971 1.386,-3.85271 -0.5654,-7.67679 -4.2985,-8.42341 -2.2449,-0.44899 -4.0227,-2.21916 -7.5385,-7.50647 -5.2788,-7.93866 -9.3997,-10.6269 -13.753,-8.97176 -4.0025,1.52175 -5.6655,5.78386 -6.3436,16.25871 -0.4963,7.66666 -0.2274,10.79478 1.492,17.35264 2.8398,10.83157 13.6374,32.30807 20.7683,41.3086 l 5.7904,7.30861 3.5,-7.30861 3.5,-7.3086 -0.077,-14 z m 184.4939,-2.08349 c 0.2315,-0.2315 0.3295,-4.33944 0.2177,-9.12874 -0.1117,-4.78931 0.3098,-9.94616 0.9367,-11.45968 1.0773,-2.60077 7.7982,-6.82809 10.8558,-6.82809 2.7995,0 -2.8864,-19.60229 -9.9883,-34.43499 -7.9183,-16.53767 -15.7193,-23.55537 -22.8853,-20.58714 -7.0225,2.90882 -10.9637,13.96576 -11.7706,33.02213 -0.6113,14.43532 0.4227,20.84575 4.7405,29.39092 1.6372,3.24001 2.9767,7.17751 2.9767,8.75 0,3.3887 3.1224,6.85908 6.1713,6.85908 1.1942,0 2.9644,0.71779 3.9338,1.59508 3.7389,3.38372 12.5677,5.06547 14.8117,2.82143 z M 760.28956,311.35835 c -8.78607,-2.19467 -17.1146,-10.35019 -19.45833,-19.05414 -2.10118,-7.8032 0.38724,-17.11144 5.4637,-20.43767 l 2.57815,-1.68927 3.84325,8.35824 c 3.57895,7.78343 9.21004,15.7233 11.15124,15.7233 0.46276,0 -0.20501,-2.36608 -1.48394,-5.25796 -2.82739,-6.39324 -6.05232,-17.58767 -5.28715,-18.35284 1.04986,-1.04986 9.22344,3.30205 12.5949,6.70596 4.89354,4.94067 8.10613,12.34285 8.11786,18.7045 0.0205,11.11648 -7.60558,17.77631 -17.51968,15.29988 z m 828.32824,-74.50157 c 0.7771,-6.65642 -6.5807,-10.09436 -11.1204,-5.196 -1.7866,1.92779 -2.5365,2.17456 -3.7985,1.25 -5.8337,-4.27359 -6.4964,-16.88553 -1.3265,-25.24752 3.9115,-6.32668 7.9466,-8.58085 16.2775,-9.09327 5.6344,-0.34656 7.2897,-0.0487 10.6691,1.91999 3.4635,2.01762 4.0786,2.91544 4.5863,6.69324 0.5819,4.33006 2.812,7.07559 5.7473,7.07559 1.1775,0 1.3325,1.13665 0.8216,6.02508 -1.0347,9.89907 -5.269,15.481 -13.9401,18.3769 -7.3466,2.45353 -8.3857,2.21673 -7.9163,-1.80401 z m 183.7012,-18.65893 c -4.4731,-1.31299 -10.5144,-6.76064 -12.6072,-11.3683 -2.0334,-4.47693 -2.6518,-16.57074 -0.8473,-16.57074 1.9722,0 5.9545,-4.90924 5.9545,-7.3406 0,-3.45679 5.1433,-5.6637 13.1511,-5.64295 8.076,0.0209 13.1364,2.72105 17.6216,9.40243 l 3.2728,4.87525 -2.9335,1.78394 c -5.1902,3.15635 -5.2478,8.65246 -0.1234,11.7688 l 2.81,1.70887 -2.6493,3.89527 c -4.7816,7.03036 -14.6084,10.1418 -23.6493,7.48803 z M 794.81901,198.86476 c 0,-8.97515 4.86955,-13.88352 26.14751,-26.35595 10.8289,-6.34754 14.93556,-8.25 17.8085,-8.25 3.71197,0 6.09558,-1.67195 7.31493,-5.13096 0.43373,-1.2304 21.98336,-14.58747 26.94677,-16.70237 2.50918,-1.06916 -0.42664,12.32883 -3.54317,16.16971 -2.87504,3.54327 -55.86526,33.74582 -57.12454,32.55897 -1.65466,-1.55948 -7.16199,-0.98157 -8.89501,0.93339 -0.91025,1.00581 -1.65499,2.94746 -1.65499,4.31479 0,1.85662 -0.88615,2.90862 -3.5,4.15508 l -3.5,1.66903 0,-3.36169 z m 738.10479,-28.69082 c -2.86,-1.14405 -3.1679,-0.79774 4.8952,-5.50567 3.575,-2.08737 9.8354,-6.1576 13.9121,-9.04493 5.9424,-4.2088 7.9616,-5.13979 10.1837,-4.69538 3.48,0.696 8.1944,-3.52438 7.7549,-6.94224 -0.2029,-1.57798 1.1613,-3.60443 4.6815,-6.95409 l 4.9678,-4.72718 -4.7843,-4.12999 c -5.0132,-4.32753 -8.0003,-9.17786 -9.0533,-14.7005 -1.2423,-6.51515 3.8166,-22.597616 7.4733,-23.758206 2.5948,-0.82357 5.2113,-5.02188 4.5961,-7.3746 -0.3324,-1.27118 0.5523,-2.90976 2.6338,-4.87824 4.4361,-4.1951 6.8275,-5.20462 12.3187,-5.20036 9.6372,0.007 15.1663,6.58131 15.4925,18.41996 0.1645,5.96989 -0.042,6.68263 -2.4987,8.614896 -2.8984,2.27989 -3.575,6.5523 -1.551,9.79336 0.8823,1.41273 0.6867,2.80059 -0.9004,6.38842 l -2.0275,4.58361 4.5387,3.25945 4.5387,3.25945 -0.6383,8.99218 c -0.3511,4.9457 -0.6383,10.28888 -0.6383,11.87374 0,2.57168 -0.2151,2.76645 -2,1.81119 -1.3096,-0.70088 -2,-2.09382 -2,-4.03518 0,-5.41657 -5.2812,-8.49023 -10.1297,-5.89543 -1.4498,0.77595 -2.3862,0.74731 -3.4125,-0.10439 -1.1446,-0.94994 -2.4196,-0.0674 -6.686,4.62809 -19.1691,21.09666 -29.0828,27.47003 -42.5325,27.34352 -3.7066,-0.0349 -7.8171,-0.49453 -9.1345,-1.02148 z m 59.8643,-68.0299 c -2.2805,-8.469226 -14.4259,-13.568966 -15.1028,-6.341516 -0.5416,5.783886 2.2115,9.688966 11.1776,15.854246 l 3.4561,2.37654 0.733,-4.09337 c 0.4032,-2.25135 0.2844,-5.75951 -0.2639,-7.7959 z m 127.0309,44.03401 -2.5,-1.05205 4,-2.33926 c 10.9266,-6.39005 22.6474,-14.7399 32.447,-23.11514 5.9658,-5.09864 11.1777,-9.80559 11.5821,-10.45988 0.454,-0.73459 -1.0497,-2.71533 -3.9313,-5.17843 -8.0526,-6.883126 -10.4773,-14.170656 -8.1104,-24.376226 2.8211,-12.16465 11.6419,-26.34526 18.6378,-29.96299 4.0195,-2.07855 6.4414,-1.77774 9.3848,1.16563 2.1542,2.15421 3.1856,2.49119 6.0058,1.96213 3.2107,-0.60234 3.5243,-0.40483 5.4973,3.46274 3.8897,7.62428 2.1147,26.01947 -3.5786,37.08718 -1.2905,2.50882 -1.1666,2.74041 3.1107,5.812126 4.3331,3.11179 4.4514,3.34095 4.3306,8.38707 -0.068,2.85332 -0.4058,8.2369 -0.75,11.96351 l -0.6258,6.77565 -9.3496,-6.0533 -9.3496,-6.05329 -3.8172,4.33656 c -3.3746,3.83378 -4.2212,4.28938 -7.3024,3.92968 -4.8848,-0.57027 -8.1237,2.67512 -7.3609,7.37568 0.4909,3.02507 0.089,3.76336 -4.0162,7.37692 -7.5544,6.64966 -14.4923,9.49781 -23.8041,9.7721 -4.4,0.12961 -9.125,-0.23778 -10.5,-0.81641 z m 59.9691,-68.034006 c -2.401,-8.91644 -14.4867,-13.48217 -15.3385,-5.79455 -0.1469,1.32513 -0.7988,3.39224 -1.4488,4.59358 -1.7693,3.27006 -1.4508,5.13764 1.3545,7.94296 2.1106,2.11061 3.1596,2.43783 6.25,1.94958 2.8,-0.44237 4.3288,-0.10598 6.2137,1.36728 l 2.5,1.95401 0.733,-4.15517 c 0.4032,-2.28534 0.2844,-5.8213 -0.2639,-7.85769 z"
       id="path4705"
       inkscape:connector-curvature="0" />
  </g>
</svg>
