<?xml version="1.0" encoding="UTF-8" standalone="no"?>
<!-- Created with Inkscape (http://www.inkscape.org/) -->

<svg
   xmlns:dc="http://purl.org/dc/elements/1.1/"
   xmlns:cc="http://creativecommons.org/ns#"
   xmlns:rdf="http://www.w3.org/1999/02/22-rdf-syntax-ns#"
   xmlns:svg="http://www.w3.org/2000/svg"
   xmlns="http://www.w3.org/2000/svg"
   xmlns:xlink="http://www.w3.org/1999/xlink"
   xmlns:sodipodi="http://sodipodi.sourceforge.net/DTD/sodipodi-0.dtd"
   xmlns:inkscape="http://www.inkscape.org/namespaces/inkscape"
   id="svg2"
   version="1.1"
   inkscape:version="0.91 r13725"
   width="2481"
   height="3503"
   sodipodi:docname="Pepper-and-Carrot_by-David-Revoy_E07P01.svg">
  <metadata
     id="metadata8">
    <rdf:RDF>
      <cc:Work
         rdf:about="">
        <dc:format>image/svg+xml</dc:format>
        <dc:type
           rdf:resource="http://purl.org/dc/dcmitype/StillImage" />
        <dc:title />
      </cc:Work>
    </rdf:RDF>
  </metadata>
  <defs
     id="defs6">
    <filter
       color-interpolation-filters="sRGB"
       id="filter4375-5-4-3"
       inkscape:label="deevad outline effect">
      <feFlood
         id="feFlood4377-0-3-1"
         flood-opacity="1"
         flood-color="rgb(255,255,255)"
         result="flood" />
      <feComposite
         id="feComposite4379-6-6-1"
         in2="SourceGraphic"
         in="flood"
         operator="in"
         result="composite1" />
      <feMorphology
         id="feMorphology4393-0-9-7"
         operator="dilate"
         radius="4"
         result="result3" />
      <feComposite
         id="feComposite4385-7-5-8"
         in2="result3"
         in="SourceGraphic"
         operator="over"
         result="composite2" />
    </filter>
  </defs>
  <sodipodi:namedview
     pagecolor="#ffffff"
     bordercolor="#666666"
     borderopacity="1"
     objecttolerance="10"
     gridtolerance="10"
     guidetolerance="10"
     inkscape:pageopacity="0"
     inkscape:pageshadow="2"
     inkscape:window-width="960"
     inkscape:window-height="1024"
     id="namedview4"
     showgrid="false"
     inkscape:zoom="0.56"
     inkscape:cx="2116.4442"
     inkscape:cy="676.04325"
     inkscape:window-x="960"
     inkscape:window-y="30"
     inkscape:window-maximized="0"
     inkscape:current-layer="layer1" />
  <g
     inkscape:groupmode="layer"
     id="layer2"
     inkscape:label="artwork"
     sodipodi:insensitive="true">
    <image
       sodipodi:absref="/home/graphene/peppercarrot-translations/peppercarrot_ep07_translation/kr/../gfx_Pepper-and-Carrot_by-David-Revoy_E07P01.png"
       xlink:href="../gfx_Pepper-and-Carrot_by-David-Revoy_E07P01.png"
       width="2481"
       height="3503"
       id="image10"
       x="0"
       y="0" />
  </g>
  <g
     inkscape:groupmode="layer"
     id="layer3"
     inkscape:label="speechbubbles">
    <path
       style="color:#000000;display:inline;overflow:visible;visibility:visible;fill:#ffffff;fill-opacity:1;fill-rule:nonzero;stroke:none;stroke-width:1px;marker:none;enable-background:accumulate"
       d="m 1918.0382,2814.6292 c -6.6136,27.3177 -43.915,29.6083 -57.6468,24.0555 27.6799,30.5599 26.7151,49.5472 -10.8666,52.4953 63.025,55.0766 11.5219,46.7423 1.3633,60.7082 49.4861,18.9806 27.3456,42.6025 18.5352,66.1177 56.8795,0.8077 38.2654,38.5016 40.6628,68.5226 4.8221,-14.0871 27.7301,-56.9746 29.1085,-9.2222 37.6224,-45.5584 82.9378,-74.9868 86.5359,4.7405 15.1588,-40.1087 30.2719,-57.0602 29.1084,-9.2224 37.5586,-62.219 71.3102,-39.8231 105.2618,-22.2376 8.9172,-18.7793 9.9562,-47.6295 38.8055,-40.8686 -4.0451,-18.6135 5.6958,-31.4084 27.6935,-39.0066 -29.2314,-11.2439 -34.6188,-22.8417 19.6577,-35.3228 -41.3013,-1.2072 -79.815,-3.6807 -31.3596,-46.2448 -15.2017,-1.0298 -51.2696,34.4868 -34.4533,-69.4534 -26.1403,33.2749 -54.0297,51.6403 -89.0055,-18.0621 -16.5524,34.8219 -45.262,52.0532 -57.7521,8.5579 -4.4892,18.5428 -23.1038,25.5165 -38.9062,26.3622 -6.1108,-7.3656 -12.4135,-17.3699 -18.9905,-30.4772 -10.7496,27.5218 -26.8299,46.1088 -57.752,8.5578 z"
       id="path3549-3-7"
       inkscape:connector-curvature="0"
       sodipodi:nodetypes="cccccccccccccccccccc" />
    <path
       style="color:#000000;display:inline;overflow:visible;visibility:visible;fill:#ffffff;fill-opacity:1;fill-rule:nonzero;stroke:none;stroke-width:1px;marker:none;enable-background:accumulate"
       d="m 1734.1678,3079.3061 c 45.1177,-3.1669 90.2875,-13.3682 135.3447,-8.3621 l -32.4594,-24.0325 c 16.9976,-6.8774 36.0555,-2.8323 54.414,-2.4961 l -17.5538,-18.2661 c 40.3132,-15.7315 80.1001,-12.7282 120.1413,-18.78 l -33.1678,-29.3234 c -39.7931,10.966 -77.3512,28.3649 -119.6584,32.0952 l 15.3013,19.6437 c -14.4336,3.3733 -29.0234,6.1661 -44.3109,6.366 l 21.4226,22.896 z"
       id="path4032"
       inkscape:connector-curvature="0"
       sodipodi:nodetypes="cccccccccccc" />
  </g>
  <g
     inkscape:groupmode="layer"
     id="layer1"
     inkscape:label="txt"
     style="display:inline">
    <flowRoot
       transform="matrix(2.3615366,0,-0.5753625,3.3512478,969.58641,1953.5303)"
       style="font-style:normal;font-variant:normal;font-weight:normal;font-stretch:normal;font-size:12px;line-height:125%;font-family:Lavi;-inkscape-font-specification:Lavi;text-align:center;letter-spacing:0px;word-spacing:0px;text-anchor:middle;fill:#000000;fill-opacity:1;stroke:#000000;stroke-width:1.60617657;stroke-miterlimit:4;stroke-dasharray:none;stroke-opacity:1;"
       id="flowRoot4212-3-7-8-6"
       xml:space="preserve"><flowRegion
         id="flowRegion4214-6-7-8-3"><rect
           style="font-style:normal;font-variant:normal;font-weight:normal;font-stretch:normal;font-family:Lavi;-inkscape-font-specification:Lavi;text-align:center;text-anchor:middle;stroke:#000000;stroke-width:1.60617657;stroke-miterlimit:4;stroke-dasharray:none;stroke-opacity:1;"
           y="265.53046"
           x="120.55251"
           height="355.03918"
           width="798.1947"
           id="rect4216-4-0-26-5" /></flowRegion><flowPara
         style="font-style:normal;font-variant:normal;font-weight:normal;font-stretch:normal;font-size:48px;font-family:'Nanum Pen Script OTF';-inkscape-font-specification:'Nanum Pen Script OTF';text-align:center;letter-spacing:5.20896292px;text-anchor:middle;stroke:#000000;stroke-width:1.60617657;stroke-miterlimit:4;stroke-dasharray:none;stroke-opacity:1;"
         id="flowPara4358-7-1">캐럿!</flowPara></flowRoot>    <path
       style="color:#000000;fill:#ffffff;fill-opacity:1;fill-rule:nonzero;stroke:none;stroke-width:1px;marker:none;visibility:visible;display:inline;overflow:visible;filter:url(#filter4386);enable-background:accumulate"
       d="m 1130.9355,1420.8031 c 35.4075,36.6291 -35.3248,128.4463 -30.2477,159.6057 1.7037,10.4559 15.7023,38.6761 22.6642,45.772 11.7462,11.9725 21.4456,-4.2547 9.8057,104.7659 -3.501,24.5293 25.2149,48.129 50.2844,43.6327 9.8174,0.8259 26.4513,15.2015 11.9531,85.4934 -1.4817,20.5997 10.6511,44.0861 24.7163,47.1263 7.4113,1.0783 23.1477,14.7462 22.0529,39.0223 0.7506,-39.1086 -26.9408,-53.9278 -32.4145,-63.4487 -6.1657,-12.3612 1.0899,-53.8941 3.1944,-80.1354 2.1044,-26.2412 -13.9676,-38.466 -22.9688,-43.0948 -9.0012,-4.6289 -34.1277,-7.8027 -38.0808,-22.2547 -3.9532,-14.453 6.8533,-69.6072 1.5463,-96.9276 -5.3069,-27.3194 -24.4286,-31.5827 -28.3392,-57.191 -3.9106,-25.6084 32.0272,-85.6156 36.3362,-113.7853 5.8624,-29.8996 -3.1778,-66.3244 -3.1778,-66.3244 z"
       id="path3153"
       inkscape:connector-curvature="0"
       sodipodi:nodetypes="cssccccccsscssccc" />
    <path
       style="fill:#ffffff;fill-opacity:1;stroke:none"
       d="m 993.09933,1398.4884 c -4.24688,-51.1398 22.07637,-48.5018 44.41447,-58.8594 24.2941,-11.2645 229.4067,-13.7939 251.9422,14.2637 22.4299,27.9262 39.1712,77.1565 -29.3181,99.5496 -68.4893,22.393 -187.0095,14.833 -206.096,9.8745 -18.0381,-4.6861 -54.47238,-24.5875 -60.94257,-64.8284 z"
       id="path3659"
       inkscape:connector-curvature="0"
       sodipodi:nodetypes="cssssc" />
    <flowRoot
       xml:space="preserve"
       id="flowRoot2987-4-9-3"
       style="font-style:normal;font-variant:normal;font-weight:normal;font-stretch:normal;font-size:12px;line-height:125%;font-family:Lavi;-inkscape-font-specification:Lavi;text-align:center;letter-spacing:0px;word-spacing:0px;text-anchor:middle;fill:#000000;fill-opacity:1;stroke:none"
       transform="matrix(1.8002722,0,0,1.8266939,391.72931,861.73273)"><flowRegion
         id="flowRegion2989-5-4-5"><rect
           id="rect2991-7-9-6"
           width="602.40173"
           height="310.73996"
           x="120.55251"
           y="265.53046"
           style="font-style:normal;font-variant:normal;font-weight:normal;font-stretch:normal;font-family:Lavi;-inkscape-font-specification:Lavi;text-align:center;text-anchor:middle" /></flowRegion><flowPara
         style="font-style:normal;font-variant:normal;font-weight:normal;font-stretch:normal;font-size:48px;font-family:'Nanum Pen Script OTF';-inkscape-font-specification:'Nanum Pen Script OTF';text-align:center;text-anchor:middle"
         id="flowPara3030-8">캐럿 !</flowPara></flowRoot>  </g>
</svg>
