<?xml version="1.0" encoding="UTF-8" standalone="no"?>
<!-- Created with Inkscape (http://www.inkscape.org/) -->

<svg
   xmlns:dc="http://purl.org/dc/elements/1.1/"
   xmlns:cc="http://creativecommons.org/ns#"
   xmlns:rdf="http://www.w3.org/1999/02/22-rdf-syntax-ns#"
   xmlns:svg="http://www.w3.org/2000/svg"
   xmlns="http://www.w3.org/2000/svg"
   xmlns:xlink="http://www.w3.org/1999/xlink"
   xmlns:sodipodi="http://sodipodi.sourceforge.net/DTD/sodipodi-0.dtd"
   xmlns:inkscape="http://www.inkscape.org/namespaces/inkscape"
   id="svg2"
   version="1.1"
   inkscape:version="0.91 r13725"
   width="2481"
   height="3503"
   sodipodi:docname="Pepper-and-Carrot_by-David-Revoy_E07P01.svg">
  <metadata
     id="metadata8">
    <rdf:RDF>
      <cc:Work
         rdf:about="">
        <dc:format>image/svg+xml</dc:format>
        <dc:type
           rdf:resource="http://purl.org/dc/dcmitype/StillImage" />
        <dc:title />
      </cc:Work>
    </rdf:RDF>
  </metadata>
  <defs
     id="defs6">
    <filter
       color-interpolation-filters="sRGB"
       id="filter4375-5-4-3"
       inkscape:label="deevad outline effect">
      <feFlood
         id="feFlood4377-0-3-1"
         flood-opacity="1"
         flood-color="rgb(255,255,255)"
         result="flood" />
      <feComposite
         id="feComposite4379-6-6-1"
         in2="SourceGraphic"
         in="flood"
         operator="in"
         result="composite1" />
      <feMorphology
         id="feMorphology4393-0-9-7"
         operator="dilate"
         radius="4"
         result="result3" />
      <feComposite
         id="feComposite4385-7-5-8"
         in2="result3"
         in="SourceGraphic"
         operator="over"
         result="composite2" />
    </filter>
  </defs>
  <sodipodi:namedview
     pagecolor="#ffffff"
     bordercolor="#666666"
     borderopacity="1"
     objecttolerance="10"
     gridtolerance="10"
     guidetolerance="10"
     inkscape:pageopacity="0"
     inkscape:pageshadow="2"
     inkscape:window-width="1366"
     inkscape:window-height="705"
     id="namedview4"
     showgrid="false"
     inkscape:zoom="0.3478261"
     inkscape:cx="1592.2407"
     inkscape:cy="1594.3973"
     inkscape:window-x="-8"
     inkscape:window-y="-8"
     inkscape:window-maximized="1"
     inkscape:current-layer="text4153" />
  <g
     inkscape:groupmode="layer"
     id="layer2"
     inkscape:label="artwork"
     sodipodi:insensitive="true">
    <image
       sodipodi:absref="D:\T\tut\P&amp;C\peppercarrot_ep07_translation-master\peppercarrot_ep07_translation-master\si\..\gfx_Pepper-and-Carrot_by-David-Revoy_E07P01.png"
       xlink:href="../gfx_Pepper-and-Carrot_by-David-Revoy_E07P01.png"
       y="0"
       x="0"
       id="image10"
       height="3503"
       width="2481" />
  </g>
  <g
     inkscape:groupmode="layer"
     id="layer3"
     inkscape:label="speechbubbles">
    <path
       style="color:#000000;display:inline;overflow:visible;visibility:visible;fill:#ffffff;fill-opacity:1;fill-rule:nonzero;stroke:none;stroke-width:1px;marker:none;enable-background:accumulate"
       d="m 1935.912,2814.6292 c -8.3389,27.3177 -55.3716,29.6083 -72.6857,24.0555 34.9011,30.5599 33.6846,49.5472 -13.7015,52.4953 79.467,55.0766 14.5277,46.7423 1.7189,60.7082 62.3962,18.9806 34.4796,42.6025 23.3707,66.1177 71.7183,0.8077 48.2482,38.5016 51.271,68.5226 6.0801,-14.0871 34.9643,-56.9746 36.7024,-9.2222 47.4373,-45.5584 104.5746,-74.9868 109.1114,4.7405 19.1134,-40.1087 38.1693,-57.0602 36.7023,-9.2224 47.3569,-62.219 89.9136,-39.8231 132.7225,-22.2376 11.2436,-18.7793 12.5536,-47.6295 48.9292,-40.8686 -5.1004,-18.6135 7.1817,-31.4084 34.9182,-39.0066 -36.8574,-11.2439 -43.6502,-22.8417 24.786,-35.3228 -52.076,-1.2072 -100.6372,-3.6807 -39.5407,-46.2448 -19.1676,-1.0298 -64.6449,34.4868 -43.4416,-69.4534 -32.9598,33.2749 -68.125,51.6403 -112.2253,-18.0621 -20.8706,34.8219 -57.07,52.0532 -72.8185,8.5579 -5.6603,18.5428 -29.1312,25.5165 -49.0561,26.3622 -7.705,-7.3656 -15.6519,-17.3699 -23.9448,-30.4772 -13.5539,27.5218 -33.8293,46.1088 -72.8184,8.5578 z"
       id="path3549-3-7"
       inkscape:connector-curvature="0"
       sodipodi:nodetypes="cccccccccccccccccccc" />
    <path
       style="color:#000000;fill:#ffffff;fill-opacity:1;fill-rule:nonzero;stroke:none;stroke-width:1px;marker:none;visibility:visible;display:inline;overflow:visible;enable-background:accumulate"
       d="m 1742.7036,3067.8954 c 45.1177,-3.1669 90.2875,-13.3682 135.3447,-8.3621 l -32.4594,-24.0325 c 16.9976,-6.8774 36.0555,-2.8323 54.414,-2.4961 l -17.5538,-18.2661 c 40.3132,-15.7315 80.1001,-12.7282 120.1413,-18.78 l -33.1678,-29.3234 c -39.7931,10.966 -77.3512,28.3649 -119.6584,32.0952 l 15.3013,19.6437 c -14.4336,3.3733 -29.0234,6.1661 -44.3109,6.366 l 21.4226,22.896 z"
       id="path4032"
       inkscape:connector-curvature="0"
       sodipodi:nodetypes="cccccccccccc" />
  </g>
  <g
     inkscape:groupmode="layer"
     id="layer1"
     inkscape:label="txt"
     style="display:inline">
    <path
       style="color:#000000;fill:#ffffff;fill-opacity:1;fill-rule:nonzero;stroke:none;stroke-width:1px;marker:none;visibility:visible;display:inline;overflow:visible;filter:url(#filter4386);enable-background:accumulate"
       d="m 1130.9355,1420.8031 c 35.4075,36.6291 -35.3248,128.4463 -30.2477,159.6057 1.7037,10.4559 15.7023,38.6761 22.6642,45.772 11.7462,11.9725 21.4456,-4.2547 9.8057,104.7659 -3.501,24.5293 25.2149,48.129 50.2844,43.6327 9.8174,0.8259 26.4513,15.2015 11.9531,85.4934 -1.4817,20.5997 10.6511,44.0861 24.7163,47.1263 7.4113,1.0783 23.1477,14.7462 22.0529,39.0223 0.7506,-39.1086 -26.9408,-53.9278 -32.4145,-63.4487 -6.1657,-12.3612 1.0899,-53.8941 3.1944,-80.1354 2.1044,-26.2412 -13.9676,-38.466 -22.9688,-43.0948 -9.0012,-4.6289 -34.1277,-7.8027 -38.0808,-22.2547 -3.9532,-14.453 6.8533,-69.6072 1.5463,-96.9276 -5.3069,-27.3194 -24.4286,-31.5827 -28.3392,-57.191 -3.9106,-25.6084 32.0272,-85.6156 36.3362,-113.7853 5.8624,-29.8996 -3.1778,-66.3244 -3.1778,-66.3244 z"
       id="path3153"
       inkscape:connector-curvature="0"
       sodipodi:nodetypes="cssccccccsscssccc" />
    <path
       style="fill:#ffffff;fill-opacity:1;stroke:none"
       d="m 1007.433,1398.6408 c -3.861,-46.4931 20.0705,-44.0948 40.3789,-53.5113 22.0867,-10.241 208.5623,-12.5405 229.0502,12.9677 20.3919,25.3888 35.612,70.1459 -26.6542,90.5043 -62.2662,20.3583 -170.0174,13.4853 -187.3697,8.9773 -16.3991,-4.2603 -49.5229,-22.3534 -55.4052,-58.938 z"
       id="path3659"
       inkscape:connector-curvature="0"
       sodipodi:nodetypes="cssssc" />
    <flowRoot
       xml:space="preserve"
       id="flowRoot2987-4-9-3"
       style="font-style:normal;font-variant:normal;font-weight:normal;font-stretch:normal;font-size:12px;line-height:125%;font-family:Lavi;-inkscape-font-specification:Lavi;text-align:center;letter-spacing:0px;word-spacing:0px;text-anchor:middle;fill:#000000;fill-opacity:1;stroke:none"
       transform="matrix(0.95792326,0,0,1.1163001,749.99302,1062.1994)"><flowRegion
         id="flowRegion2989-5-4-5"><rect
           id="rect2991-7-9-6"
           width="602.40173"
           height="310.73996"
           x="120.55251"
           y="265.53046"
           style="font-style:normal;font-variant:normal;font-weight:normal;font-stretch:normal;font-family:Lavi;-inkscape-font-specification:Lavi;text-align:center;text-anchor:middle" /></flowRegion><flowPara
         style="font-style:normal;font-variant:normal;font-weight:bold;font-stretch:normal;font-size:48px;font-family:BhashitaComplex;-inkscape-font-specification:'BhashitaComplex Bold';text-align:center;text-anchor:middle"
         id="flowPara3030-8">කැරෝට්!</flowPara></flowRoot>    <g
       style="font-style:normal;font-weight:normal;font-size:40px;line-height:125%;font-family:sans-serif;letter-spacing:0px;word-spacing:0px;fill:#160000;fill-opacity:1;stroke:none;stroke-width:1px;stroke-linecap:butt;stroke-linejoin:miter;stroke-opacity:1"
       id="text4153"
       transform="matrix(1.1225641,0,0,1.1127699,-255.09339,-330.48694)">
      <path
         style="font-style:normal;font-variant:normal;font-weight:bold;font-stretch:normal;font-size:70px;font-family:BhashitaComplex;-inkscape-font-specification:'BhashitaComplex Bold';fill:#000000"
         d="M 2203.7656 2880.0898 C 2201.4629 2886.5143 2199.1602 2892.9388 2196.8574 2899.3633 C 2196.9165 2914.9284 2197.8237 2930.4722 2198.7324 2946.0059 C 2199.2328 2948.3294 2203.3034 2947.9066 2203.3105 2945.5273 C 2204.7077 2938.8143 2203.7275 2931.9192 2204.408 2925.1403 C 2204.7076 2916.4275 2205.0071 2907.7147 2205.3066 2899.002 C 2204.492 2897.9011 2203.6939 2896.7885 2202.9121 2895.6641 C 2203.2331 2890.4824 2203.554 2885.3008 2203.875 2880.1191 L 2203.8242 2880.0781 L 2203.7656 2880.0898 z M 2159.6543 2885.2578 C 2157.7943 2890.5553 2155.9342 2895.8529 2154.0742 2901.1504 C 2151.681 2903.4974 2149.2878 2905.8444 2146.8945 2908.1914 C 2146.3909 2911.4194 2146.3477 2914.6927 2146.2441 2917.9512 C 2147.7929 2919.8477 2150.5201 2919.2974 2152.5331 2918.6069 C 2159.8855 2917.0782 2167.7555 2917.2358 2174.7773 2920.0859 C 2181.637 2924.6782 2184.8231 2933.4624 2183.8943 2941.4879 C 2182.8426 2950.5546 2173.7148 2957.7448 2164.654 2956.6974 C 2159.1246 2956.6833 2153.1332 2954.6935 2149.9033 2949.9583 C 2146.7057 2944.4154 2150.0291 2936.1995 2156.3672 2934.793 C 2160.4423 2933.6129 2164.732 2933.7625 2168.8906 2933.0742 C 2170.2849 2932.0682 2169.1375 2929.4847 2167.4648 2929.7891 C 2161.2238 2929.2387 2154.4361 2929.8609 2149.2637 2933.7246 C 2143.2805 2938.8387 2142.5558 2948.5563 2147.0626 2954.8516 C 2149.1141 2958.1569 2151.6996 2961.0788 2154.1504 2964.0859 C 2156.5633 2965.7422 2159.5157 2964.448 2162.1497 2964.3016 C 2167.9312 2963.7029 2174.0146 2964.5745 2179.0508 2967.6016 C 2180.549 2968.0711 2182.0194 2966.437 2181.7402 2964.9824 C 2182.8355 2956.1887 2188.3709 2948.4467 2188.3585 2939.447 C 2188.5694 2931.0592 2185.1572 2922.2439 2178.2062 2917.2444 C 2172.3491 2912.9635 2164.6643 2911.8929 2157.6314 2913.111 C 2155.6589 2913.2664 2153.6869 2913.5056 2151.7051 2913.4707 C 2149.9329 2912.7358 2150.6571 2909.779 2152.4609 2909.6406 C 2159.9235 2906.9491 2168.3182 2905.8134 2175.9727 2908.4043 C 2178.9296 2909.6839 2180.4819 2912.7107 2181.8379 2915.4492 C 2182.9618 2916.5878 2185.1452 2915.2718 2184.6672 2913.7341 C 2184.7229 2909.5659 2182.3012 2905.8521 2182.1773 2901.7016 C 2181.6452 2897.4907 2181.9045 2893.2388 2181.8008 2889.0078 C 2181.3629 2887.6712 2179.0705 2888.1865 2179.0996 2889.5371 C 2177.9063 2892.811 2176.9253 2896.3448 2174.4434 2898.9199 C 2171.0909 2900.6079 2167.2301 2900.0156 2163.6348 2900.5605 C 2161.4857 2900.3968 2160.4828 2897.9798 2160.6286 2896.0763 C 2160.3667 2892.4617 2160.5405 2888.7903 2159.707 2885.2383 L 2159.6543 2885.2578 z M 2136.6582 2885.3281 C 2135.5039 2890.4707 2134.3496 2895.6133 2133.1953 2900.7559 C 2131.7063 2902.5354 2128.9619 2902.8865 2126.9395 2901.8672 C 2124.9865 2901.4755 2124.0959 2904.8662 2125.998 2905.4727 C 2128.5331 2906.8717 2129.1941 2910.0965 2128.7741 2912.7521 C 2128.9048 2917.2358 2129.0354 2921.7195 2129.166 2926.2031 C 2125.9011 2927.8939 2121.9167 2928.3465 2119.2559 2931.0801 C 2117.43 2931.8823 2118.3756 2935.3053 2120.4043 2934.8086 C 2122.4277 2934.374 2123.7136 2931.955 2125.9629 2932.3457 C 2128.5037 2933.5207 2129.0108 2936.6359 2129.0782 2939.1408 C 2129.2909 2944.7337 2129.566 2950.4643 2127.9629 2955.8984 C 2126.6181 2957.9011 2123.445 2957.2421 2122.1188 2955.5531 C 2121.45 2954.6859 2120.1854 2953.7143 2119.1289 2954.5781 C 2117.8914 2955.6431 2118.7684 2957.4587 2119.46 2958.5867 C 2120.6101 2960.5224 2122.2437 2962.1493 2123.1934 2964.209 C 2124.0684 2965.1286 2125.6468 2964.574 2126.2188 2963.5801 C 2127.3903 2962.8385 2128.7058 2963.8644 2129.4551 2964.7461 C 2130.6688 2965.5609 2132.2773 2964.4012 2132.3391 2963.059 C 2134.0587 2957.6874 2135.9004 2952.2497 2136.0296 2946.5527 C 2136.2383 2942.7937 2135.7209 2939.0497 2135.0315 2935.3661 C 2134.2364 2929.6543 2133.5924 2923.9108 2133.4688 2918.1406 C 2135.1222 2915.0349 2139.2545 2913.8813 2140.166 2910.2891 C 2141.0913 2905.3254 2137.8194 2900.8794 2137.7188 2895.9912 C 2137.3326 2892.4311 2137.038 2888.8621 2136.7051 2885.2969 L 2136.6582 2885.3281 z M 2135.0332 2906.1621 C 2136.6171 2907.07 2136.8758 2909.4139 2135.8105 2910.8125 C 2134.2571 2911.648 2132.4466 2909.3055 2133.6133 2908 C 2133.909 2907.3139 2133.9843 2906.007 2135.0332 2906.1621 z M 2111.1367 2908.6641 C 2106.9341 2911.2871 2104.8099 2916.0645 2101.0566 2919.1543 C 2099.6387 2919.66 2098.7105 2918.1315 2098.9539 2916.9053 C 2098.6626 2915.6359 2096.5759 2915.1748 2096.1291 2916.5875 C 2095.0885 2918.5999 2095.2085 2921.1322 2093.7541 2922.9373 C 2092.7248 2924.0436 2091.0966 2923.2336 2090.0401 2922.6038 C 2088.9193 2921.8733 2087.732 2920.7306 2086.2773 2921.2539 C 2084.6753 2921.6692 2083.6206 2923.122 2083.1191 2924.6145 C 2079.7417 2930.2161 2075.3707 2935.3033 2073.1562 2941.5391 C 2072.3562 2947.6456 2075.6102 2953.6777 2080.2969 2957.4238 C 2082.4793 2959.5769 2084.6443 2961.7984 2086.25 2964.4297 C 2087.6098 2965.6917 2090.1392 2965.0465 2090.7344 2963.291 C 2092.0576 2961.7104 2094.9092 2962.3451 2095.6445 2964.2031 C 2097.0021 2965.8391 2099.9835 2965.2312 2100.709 2963.2715 C 2101.6392 2962.1247 2102.5288 2960.9027 2103.7578 2960.0527 C 2105.5103 2960.2062 2107.8463 2960.5561 2108.9414 2958.8008 C 2112.0521 2953.423 2114.621 2947.3253 2114.1518 2940.9919 C 2112.9494 2934.5249 2107.67 2929.2281 2101.4258 2927.4219 C 2100.0662 2926.8671 2100.1326 2924.5604 2101.5352 2924.1035 C 2106.1309 2920.6606 2111.1965 2917.3195 2113.8965 2912.0645 C 2114.4381 2910.4083 2112.9273 2908.3623 2111.1367 2908.6641 z M 1999.2129 2911.9199 C 1995.6754 2914.9003 1992.6416 2918.8705 1987.9979 2920.1637 C 1982.8293 2922.3467 1977.6608 2924.5298 1972.4922 2926.7129 C 1969.0713 2926.1126 1967.2898 2922.8251 1965.1426 2920.4668 C 1962.9177 2918.1848 1959.7569 2916.7923 1956.5547 2916.8652 C 1954.699 2916.3282 1953.3842 2914.8106 1952.2031 2913.3711 C 1950.9885 2912.6499 1949.422 2914.4044 1950.25 2915.5371 C 1953.2184 2922.9744 1952.7886 2931.1215 1953.9609 2938.916 C 1955.0781 2941.3223 1959.3374 2940.1585 1959.1953 2937.5469 C 1959.5892 2933.6855 1959.9831 2929.8242 1960.377 2925.9629 C 1961.559 2924.2918 1964.6682 2925.5271 1964.4043 2927.5488 C 1965.1011 2932.4421 1962.8001 2937.2155 1959.7461 2940.8984 C 1956.3997 2946.2773 1953.0534 2951.6562 1949.707 2957.0352 C 1949.0575 2958.6446 1950.813 2960.6344 1952.4902 2960.0605 C 1955.2799 2960.0829 1957.0071 2963.8545 1955.291 2966.0195 C 1954.6706 2967.0679 1954.4806 2968.7989 1955.7031 2969.4961 C 1958.1299 2969.9945 1960.4455 2967.826 1962.834 2968.9141 C 1963.8372 2969.8705 1963.5042 2971.4347 1963.0137 2972.5645 C 1963.0521 2973.9566 1965.3505 2974.3055 1965.832 2973.0137 C 1968.5013 2969.9789 1971.1628 2966.937 1973.8848 2963.9492 C 1978.155 2962.9566 1982.3592 2966.1234 1986.5859 2964.5605 C 1993.2544 2962.954 1998.4049 2955.88 1997.0545 2948.999 C 1996.2407 2940.3267 1988.5772 2933.004 1979.959 2932.2344 C 1978.5143 2932.0085 1978.6666 2929.4882 1980.123 2929.4258 C 1988.3113 2926.9035 1998.0806 2929.4989 2003.3457 2936.4183 C 2007.2625 2941.3385 2008.8005 2948.5294 2005.9478 2954.3248 C 2004.2558 2957.6105 2000.6902 2959.7709 1997.0117 2959.873 C 1995.5336 2960.1583 1995.0984 2962.5434 1996.6348 2963.0742 C 1999.0074 2963.5965 2001.4816 2962.7834 2003.603 2961.7267 C 2008.1467 2959.4704 2011.0582 2954.7184 2011.6891 2949.7624 C 2012.639 2943.3271 2010.9693 2936.7566 2007.8988 2931.0982 C 2006.434 2928.2713 2004.4331 2925.7258 2003.4129 2922.6766 C 2002.0906 2919.4335 2001.379 2915.9769 2000.3692 2912.6463 C 2000.1581 2912.2289 1999.7385 2911.7504 1999.2129 2911.9199 z M 2055.3789 2919.4863 C 2054.8208 2921.1218 2054.7372 2922.8878 2054.0703 2924.4902 C 2051.4863 2924.9777 2049.5763 2922.769 2047.7852 2921.2891 C 2046.8836 2920.5782 2045.4229 2919.4963 2044.3594 2920.5195 C 2041.978 2922.9182 2042.5219 2926.682 2040.7211 2929.402 C 2038.7399 2933.522 2035.7135 2937.5598 2036.012 2942.3582 C 2036.6512 2948.8927 2040.7762 2954.2933 2042.9148 2960.3467 C 2043.7536 2962.1902 2046.1751 2962.929 2047.929 2961.9386 C 2049.7071 2961.2164 2051.6444 2959.5213 2053.6289 2960.5371 C 2054.722 2961.3457 2055.2966 2963.2043 2056.916 2963.0469 C 2058.8722 2962.5073 2059.6448 2960.3958 2060.9773 2959.0696 C 2063.4078 2955.8157 2066.7133 2952.6606 2066.9168 2948.3463 C 2067.2233 2944.5087 2065.2178 2940.7465 2062.1072 2938.5566 C 2058.4337 2935.799 2053.261 2935.1704 2049.0567 2937.0117 C 2046.7982 2938.1521 2045.4292 2940.7645 2045.8711 2943.2715 C 2046.0262 2944.4708 2046.277 2945.8155 2047.0329 2946.7535 C 2050.0979 2948.8649 2054.4064 2949.0076 2057.582 2947.0508 C 2058.5524 2945.661 2058.4969 2943.8912 2059.0586 2942.3438 C 2061.1524 2941.4622 2063.1892 2943.9448 2062.7122 2945.9434 C 2062.6225 2950.012 2058.4917 2952.9954 2054.6171 2952.8184 C 2049.5174 2953.1367 2043.8511 2951.0553 2041.3223 2946.373 C 2038.7047 2941.3872 2041.0209 2934.7835 2045.7871 2932.006 C 2050.4509 2929.1737 2056.479 2929.5584 2061.3301 2931.7119 C 2062.2948 2932.0105 2063.5764 2933.0597 2064.4512 2932.0566 C 2065.2503 2931.2101 2065.0048 2929.7179 2063.9453 2929.2152 C 2061.0341 2926.4077 2057.945 2923.6101 2056.1055 2919.9414 C 2055.9182 2919.7427 2055.6989 2919.4229 2055.3789 2919.4863 z M 2097.6074 2930.9922 C 2101.4127 2932.0333 2104.942 2933.892 2108.2051 2936.082 C 2111.2184 2940.2041 2109.9774 2946.2617 2106.478 2949.6949 C 2103.5789 2952.5476 2099.3377 2953.0946 2095.502 2953.7109 C 2090.5587 2954.2741 2085.366 2953.7208 2080.851 2951.5725 C 2076.2389 2948.1817 2076.0173 2940.44 2080.4629 2936.8129 C 2084.6451 2932.4172 2090.9356 2930.789 2096.8398 2930.8066 C 2097.0957 2930.8685 2097.3516 2930.9303 2097.6074 2930.9922 z M 2027.8262 2934.7949 C 2024.8229 2934.8997 2021.8197 2935.0046 2018.8164 2935.1094 C 2017.5261 2935.6555 2017.0718 2937.5659 2018.0566 2938.5918 C 2020.1341 2938.6751 2022.2116 2938.7585 2024.2891 2938.8418 C 2023.4756 2945.1923 2019.2235 2950.6969 2019.3459 2957.2281 C 2018.9875 2961.5218 2019.0728 2965.8352 2018.9512 2970.1387 C 2018.0805 2971.0633 2018.7863 2972.9093 2020.0996 2972.8848 C 2021.6647 2971.9972 2022.1001 2969.813 2023.9102 2969.2656 C 2025.4188 2969.7171 2025.9156 2971.689 2025.2578 2973.002 C 2024.8924 2974.5943 2027.7612 2975.1883 2028.082 2973.5996 C 2030.0498 2969.6737 2031.9121 2965.6778 2034.3066 2961.9863 C 2034.8709 2960.3609 2032.3438 2958.9675 2031.248 2960.2734 C 2029.5397 2961.8044 2026.3885 2960.5635 2026.2772 2958.2371 C 2024.6478 2953.0442 2026.4266 2947.5687 2028.6358 2942.8342 C 2029.5207 2940.8366 2030.5192 2938.8833 2031.2227 2936.8105 C 2031.1003 2935.2048 2029.1933 2934.566 2027.8262 2934.7949 z M 1978.3633 2937.2109 C 1984.692 2938.0582 1990.6093 2943.2617 1991.099 2949.8231 C 1991.357 2953.8654 1987.8094 2957.68 1983.7576 2957.7294 C 1981.6112 2958.0631 1979.1933 2956.9087 1978.5216 2954.7534 C 1977.6378 2953.0937 1977.0948 2951.2185 1975.8027 2949.8047 C 1974.2414 2949.1644 1972.5219 2950.779 1972.6738 2952.3594 C 1972.0209 2955.8749 1969.049 2959.344 1965.2422 2959.2148 C 1962.1952 2959.1758 1959.3364 2957.3518 1957.748 2954.7949 C 1957.546 2951.319 1960.3407 2948.8145 1962.2132 2946.226 C 1964.8493 2942.7899 1967.5968 2938.8308 1972.017 2937.6486 C 1974.0774 2937.132 1976.2546 2937.0628 1978.3633 2937.2109 z M 2053 2940.0625 C 2054.5941 2941.0347 2055.1304 2943.483 2053.8828 2944.9355 C 2052.1496 2945.3992 2050.1821 2944.5811 2049.248 2943.0586 C 2049.5175 2941.3153 2051.214 2939.8765 2053 2940.0625 z M 2202.5156 2952.625 C 2197.6125 2954.1321 2195.9223 2961.2116 2199.3284 2964.9352 C 2201.8824 2967.6663 2204.6104 2970.2338 2207.2812 2972.8516 C 2208.633 2973.4939 2210.1719 2971.6552 2209.3828 2970.416 C 2208.2015 2965.0536 2207.4086 2959.5769 2205.5371 2954.3926 C 2204.7909 2953.4902 2203.7934 2952.4921 2202.5156 2952.625 z "
         id="path4175"
         inkscape:connector-curvature="0"
         sodipodi:nodetypes="cccccccccccccccccsccscccccsccccccccscscccccscccccccscccccscccccscccssccccccccccccccccccscccsccccsscccccccccccsccccccsccscsccccscccccscccccscccsccscccccccccccssccccccccscccccccccsccsccccccsccccccccscccccccccccccsccccccccccccccccscccccssccccsccsccscccccccsscccsccccccccccscccccccscsccccccccccsccccccccccccccccccccccccccccccccccscccscsccccccccccccccccsccccsccccscccscccsccsscccccccscccscccsccccccccscccccccscccccccscsscccccscccccscccscccccccccccssccccsssscsscccccsccccccccscccccccccccccccscccssccccccccccsccccccccccccccccccscsssccccscsscss" />
    </g>
  </g>
</svg>
