<?xml version="1.0" encoding="UTF-8" standalone="no"?>
<!-- Created with Inkscape (http://www.inkscape.org/) -->

<svg
   xmlns:dc="http://purl.org/dc/elements/1.1/"
   xmlns:cc="http://creativecommons.org/ns#"
   xmlns:rdf="http://www.w3.org/1999/02/22-rdf-syntax-ns#"
   xmlns:svg="http://www.w3.org/2000/svg"
   xmlns="http://www.w3.org/2000/svg"
   xmlns:xlink="http://www.w3.org/1999/xlink"
   xmlns:sodipodi="http://sodipodi.sourceforge.net/DTD/sodipodi-0.dtd"
   xmlns:inkscape="http://www.inkscape.org/namespaces/inkscape"
   id="svg2"
   version="1.1"
   inkscape:version="0.92.2 (5c3e80d, 2017-08-06)"
   width="2481"
   height="3503"
   sodipodi:docname="Pepper-and-Carrot_by-David-Revoy_E07P01.svg">
  <metadata
     id="metadata8">
    <rdf:RDF>
      <cc:Work
         rdf:about="">
        <dc:format>image/svg+xml</dc:format>
        <dc:type
           rdf:resource="http://purl.org/dc/dcmitype/StillImage" />
        <dc:title />
      </cc:Work>
    </rdf:RDF>
  </metadata>
  <defs
     id="defs6">
    <filter
       color-interpolation-filters="sRGB"
       id="filter4375-5-4-3"
       inkscape:label="deevad outline effect">
      <feFlood
         id="feFlood4377-0-3-1"
         flood-opacity="1"
         flood-color="rgb(255,255,255)"
         result="flood" />
      <feComposite
         id="feComposite4379-6-6-1"
         in2="SourceGraphic"
         in="flood"
         operator="in"
         result="composite1" />
      <feMorphology
         id="feMorphology4393-0-9-7"
         operator="dilate"
         radius="4"
         result="result3" />
      <feComposite
         id="feComposite4385-7-5-8"
         in2="result3"
         in="SourceGraphic"
         operator="over"
         result="composite2" />
    </filter>
  </defs>
  <sodipodi:namedview
     pagecolor="#ffffff"
     bordercolor="#666666"
     borderopacity="1"
     objecttolerance="10"
     gridtolerance="10"
     guidetolerance="10"
     inkscape:pageopacity="0"
     inkscape:pageshadow="2"
     inkscape:window-width="1366"
     inkscape:window-height="705"
     id="namedview4"
     showgrid="false"
     inkscape:zoom="0.24595019"
     inkscape:cx="1342.9281"
     inkscape:cy="2185.0306"
     inkscape:window-x="-8"
     inkscape:window-y="-8"
     inkscape:window-maximized="1"
     inkscape:current-layer="layer1" />
  <g
     inkscape:groupmode="layer"
     id="layer2"
     inkscape:label="artwork"
     sodipodi:insensitive="true">
    <image
       sodipodi:absref="C:\Users\jamesmichael\Downloads\Compressed\peppercarrot_ep07_translation-master\peppercarrot_ep07_translation-master\ph\../gfx_Pepper-and-Carrot_by-David-Revoy_E07P01.png"
       xlink:href="../gfx_Pepper-and-Carrot_by-David-Revoy_E07P01.png"
       y="0"
       x="0"
       id="image10"
       height="3503"
       width="2481" />
  </g>
  <g
     inkscape:groupmode="layer"
     id="layer3"
     inkscape:label="speechbubbles">
    <path
       style="color:#000000;fill:#ffffff;fill-opacity:1;fill-rule:nonzero;stroke:none;stroke-width:1px;marker:none;visibility:visible;display:inline;overflow:visible;enable-background:accumulate"
       d="m 1935.912,2814.6292 c -8.3389,27.3177 -55.3716,29.6083 -72.6857,24.0555 34.9011,30.5599 33.6846,49.5472 -13.7015,52.4953 79.467,55.0766 14.5277,46.7423 1.7189,60.7082 62.3962,18.9806 34.4796,42.6025 23.3707,66.1177 71.7183,0.8077 48.2482,38.5016 51.271,68.5226 6.0801,-14.0871 34.9643,-56.9746 36.7024,-9.2222 47.4373,-45.5584 104.5746,-74.9868 109.1114,4.7405 19.1134,-40.1087 38.1693,-57.0602 36.7023,-9.2224 47.3569,-62.219 89.9136,-39.8231 132.7225,-22.2376 11.2436,-18.7793 12.5536,-47.6295 48.9292,-40.8686 -5.1004,-18.6135 7.1817,-31.4084 34.9182,-39.0066 -36.8574,-11.2439 -43.6502,-22.8417 24.786,-35.3228 -52.076,-1.2072 -100.6372,-3.6807 -39.5407,-46.2448 -19.1676,-1.0298 -64.6449,34.4868 -43.4416,-69.4534 -32.9598,33.2749 -68.125,51.6403 -112.2253,-18.0621 -20.8706,34.8219 -57.07,52.0532 -72.8185,8.5579 -5.6603,18.5428 -29.1312,25.5165 -49.0561,26.3622 -7.705,-7.3656 -15.6519,-17.3699 -23.9448,-30.4772 -13.5539,27.5218 -33.8293,46.1088 -72.8184,8.5578 z"
       id="path3549-3-7"
       inkscape:connector-curvature="0"
       sodipodi:nodetypes="cccccccccccccccccccc" />
    <path
       style="color:#000000;fill:#ffffff;fill-opacity:1;fill-rule:nonzero;stroke:none;stroke-width:1px;marker:none;visibility:visible;display:inline;overflow:visible;enable-background:accumulate"
       d="m 1742.7036,3067.8954 c 45.1177,-3.1669 90.2875,-13.3682 135.3447,-8.3621 l -32.4594,-24.0325 c 16.9976,-6.8774 36.0555,-2.8323 54.414,-2.4961 l -17.5538,-18.2661 c 40.3132,-15.7315 80.1001,-12.7282 120.1413,-18.78 l -33.1678,-29.3234 c -39.7931,10.966 -77.3512,28.3649 -119.6584,32.0952 l 15.3013,19.6437 c -14.4336,3.3733 -29.0234,6.1661 -44.3109,6.366 l 21.4226,22.896 z"
       id="path4032"
       inkscape:connector-curvature="0"
       sodipodi:nodetypes="cccccccccccc" />
  </g>
  <g
     inkscape:groupmode="layer"
     id="layer1"
     inkscape:label="txt"
     style="display:inline">
    <path
       style="font-style:normal;font-variant:normal;font-weight:normal;font-stretch:normal;line-height:0.01%;font-family:Lavi;-inkscape-font-specification:Lavi;text-align:center;letter-spacing:0px;word-spacing:0px;text-anchor:middle;fill:#d41400;fill-opacity:1;stroke:#d41400;stroke-width:5.6991148;stroke-miterlimit:4;stroke-dasharray:none;stroke-opacity:1"
       d="M 2201.3555 2911.5234 C 2200.9307 2911.5234 2200.5045 2911.7899 2200.0781 2912.3223 C 2199.6552 2912.8293 2199.375 2913.4895 2199.2363 2914.3008 L 2195.8203 2934.5703 L 2192.416 2949.2871 L 2192.3008 2950.123 C 2192.1697 2951.0865 2192.2308 2951.8857 2192.4844 2952.5195 C 2192.7556 2953.128 2193.1685 2953.4316 2193.7207 2953.4316 C 2194.1738 2953.4316 2194.563 2953.2162 2194.8906 2952.7852 C 2195.2183 2952.3542 2195.4944 2951.835 2195.7188 2951.2266 C 2195.9607 2950.5927 2196.1666 2949.9208 2196.334 2949.2109 C 2196.5048 2948.4757 2196.6643 2947.8155 2196.8145 2947.2324 C 2196.9225 2946.7507 2197.0616 2946.1434 2197.2324 2945.4082 C 2197.4033 2944.673 2197.5805 2943.8992 2197.7617 2943.0879 C 2197.9429 2942.2766 2198.1332 2941.4519 2198.332 2940.6152 C 2198.5308 2939.7786 2198.7037 2939.0185 2198.8535 2938.334 C 2199.0067 2937.6241 2199.1357 2937.0423 2199.2402 2936.5859 C 2199.3483 2936.1042 2199.41 2935.8123 2199.4238 2935.7109 L 2202.5957 2917.0762 L 2202.7715 2915.7832 C 2202.8543 2915.1747 2202.8963 2914.6164 2202.8945 2914.1094 C 2202.8962 2913.577 2202.8442 2913.1205 2202.7402 2912.7402 C 2202.6362 2912.3599 2202.4714 2912.0681 2202.2441 2911.8652 C 2202.0203 2911.6371 2201.7236 2911.5234 2201.3555 2911.5234 z M 2122.6621 2913.4629 C 2121.2745 2913.4629 2119.8837 2913.8566 2118.4883 2914.6426 C 2117.107 2915.4285 2115.7638 2916.5059 2114.459 2917.875 C 2113.1717 2919.2187 2111.9486 2920.829 2110.7871 2922.7051 C 2109.6291 2924.5558 2108.5774 2926.5579 2107.6328 2928.7129 C 2106.7059 2930.8425 2105.9053 2933.0855 2105.2305 2935.4434 C 2104.5591 2937.7758 2104.0635 2940.1089 2103.7461 2942.4414 C 2103.1838 2946.5739 2102.9162 2950.4664 2102.9434 2954.1172 C 2102.9739 2957.7426 2103.3565 2960.9103 2104.0918 2963.623 C 2104.8447 2966.3104 2105.9713 2968.4418 2107.4707 2970.0137 C 2108.9877 2971.5602 2110.9504 2972.332 2113.3574 2972.332 L 2115.2266 2972.332 C 2116.4642 2971.9771 2117.6727 2971.3189 2118.8516 2970.3555 C 2120.0339 2969.3667 2121.1594 2968.1619 2122.2305 2966.7422 C 2123.3015 2965.3224 2124.2976 2963.7259 2125.2188 2961.9512 C 2126.154 2960.1765 2126.9874 2958.3253 2127.7168 2956.3984 C 2128.4638 2954.4463 2129.102 2952.456 2129.6328 2950.4277 C 2130.1636 2948.3995 2130.5601 2946.4229 2130.8223 2944.4961 C 2131.1086 2942.3918 2131.2905 2940.1723 2131.3672 2937.8398 C 2131.4615 2935.482 2131.4302 2933.1626 2131.2734 2930.8809 C 2131.1343 2928.5738 2130.8606 2926.368 2130.4531 2924.2637 C 2130.0598 2922.1594 2129.5116 2920.3082 2128.8086 2918.7109 C 2128.1056 2917.1137 2127.2439 2915.8463 2126.2246 2914.9082 C 2125.223 2913.9448 2124.0355 2913.4629 2122.6621 2913.4629 z M 2023.3105 2914.1094 C 2022.4752 2914.1094 2021.6055 2914.364 2020.7012 2914.8711 C 2019.811 2915.3781 2018.9171 2916.0755 2018.0176 2916.9629 C 2017.1323 2917.8502 2016.2671 2918.9022 2015.4219 2920.1191 C 2014.5943 2921.3107 2013.8254 2922.5899 2013.1152 2923.959 C 2012.4192 2925.328 2011.8065 2926.76 2011.2773 2928.2559 C 2010.7482 2929.7517 2010.3466 2931.2483 2010.0723 2932.7441 L 2006.4355 2952.4434 C 2006.234 2953.5082 2005.9689 2954.6738 2005.6406 2955.9414 C 2005.3266 2957.209 2004.9885 2958.502 2004.625 2959.8203 C 2004.2615 2961.1387 2003.8941 2962.4316 2003.5234 2963.6992 C 2003.1562 2964.9415 2002.8319 2966.0836 2002.5488 2967.123 L 2002.4297 2967.998 C 2002.371 2968.429 2002.3448 2968.8718 2002.3535 2969.3281 C 2002.3798 2969.7591 2002.4375 2970.1646 2002.5273 2970.5449 C 2002.6206 2970.8999 2002.7503 2971.2035 2002.9141 2971.457 C 2003.0812 2971.6852 2003.2847 2971.8008 2003.5254 2971.8008 C 2003.7095 2971.8008 2003.9051 2971.7107 2004.1133 2971.5332 C 2004.3215 2971.3557 2004.5231 2971.1285 2004.7168 2970.8496 C 2004.9139 2970.5454 2005.0919 2970.228 2005.25 2969.8984 C 2005.4116 2969.5435 2005.5455 2969.1889 2005.6504 2968.834 C 2006.8119 2964.9804 2007.8584 2961.0761 2008.793 2957.1211 C 2009.731 2953.1407 2010.499 2949.1718 2011.0938 2945.2168 L 2025.0469 2945.2168 C 2024.7985 2947.0422 2024.5072 2948.868 2024.1738 2950.6934 C 2023.8405 2952.5188 2023.4998 2954.3445 2023.1523 2956.1699 C 2022.8049 2957.9953 2022.4642 2959.8211 2022.1309 2961.6465 C 2021.7975 2963.4719 2021.5081 2965.2976 2021.2598 2967.123 L 2020.9375 2969.4805 C 2020.9645 2970.1143 2021.0997 2970.6334 2021.3418 2971.0391 C 2021.6015 2971.4194 2021.9224 2971.6094 2022.3047 2971.6094 C 2022.7153 2971.6094 2023.1044 2971.3567 2023.4707 2970.8496 C 2023.8512 2970.3426 2024.1305 2969.747 2024.3086 2969.0625 C 2024.3917 2968.5554 2024.53 2967.7954 2024.7246 2966.7812 C 2024.9227 2965.7418 2025.1361 2964.588 2025.3652 2963.3203 C 2025.612 2962.0273 2025.8688 2960.6698 2026.1328 2959.25 C 2026.4109 2957.8302 2026.6635 2956.4864 2026.8926 2955.2188 C 2027.1251 2953.9258 2027.3313 2952.7719 2027.5117 2951.7578 C 2027.6956 2950.7183 2027.8285 2949.9583 2027.9082 2949.4766 L 2028.5898 2944.457 C 2028.8658 2942.4288 2029.1309 2940.2739 2029.3848 2937.9922 C 2029.6562 2935.6851 2029.8409 2933.4029 2029.9355 2931.1465 C 2030.0443 2928.8901 2030.0389 2926.7352 2029.9219 2924.6816 C 2029.8048 2922.6281 2029.4975 2920.8278 2029 2919.2812 C 2028.5201 2917.7094 2027.8205 2916.4556 2026.9004 2915.5176 C 2025.9944 2914.5795 2024.7972 2914.1094 2023.3105 2914.1094 z M 1989.9043 2914.2246 C 1987.4689 2914.2246 1985.2331 2914.9338 1983.1992 2916.3535 C 1981.1654 2917.7733 1979.3596 2919.7636 1977.7793 2922.3242 C 1976.2025 2924.8595 1974.8623 2927.89 1973.7598 2931.4141 C 1972.6573 2934.9381 1971.8187 2938.8032 1971.2461 2943.0117 C 1970.9011 2945.547 1970.6696 2948.031 1970.5508 2950.4648 C 1970.432 2952.8987 1970.451 2955.2064 1970.6074 2957.3867 C 1970.7638 2959.5671 1971.0712 2961.5828 1971.5273 2963.4336 C 1971.9869 2965.259 1972.6121 2966.8438 1973.4062 2968.1875 C 1974.2004 2969.5312 1975.1773 2970.5832 1976.334 2971.3438 C 1977.5083 2972.079 1978.8815 2972.4473 1980.4531 2972.4473 C 1980.9487 2972.4473 1981.657 2972.3317 1982.5801 2972.1035 C 1983.4997 2971.9007 1984.5127 2971.5853 1985.6191 2971.1543 C 1986.7397 2970.7233 1987.8802 2970.2022 1989.0391 2969.5938 C 1990.2155 2968.9599 1991.2969 2968.239 1992.2852 2967.4277 C 1993.2876 2966.6164 1994.1312 2965.729 1994.8145 2964.7656 C 1995.5154 2963.7769 1995.9424 2962.7112 1996.0977 2961.5703 C 1996.2184 2960.683 1996.1643 2959.9346 1995.9355 2959.3262 C 1995.721 2958.7177 1995.3447 2958.4141 1994.8066 2958.4141 C 1994.5518 2958.4141 1994.2669 2958.5414 1993.9492 2958.7949 C 1993.635 2959.0231 1993.3193 2959.313 1993.002 2959.668 C 1992.7022 2959.9976 1992.4008 2960.3404 1992.0977 2960.6953 C 1991.8121 2961.0249 1991.5559 2961.2913 1991.3301 2961.4941 C 1989.7175 2962.9393 1988.0414 2964.0676 1986.3027 2964.8789 C 1984.5641 2965.6902 1982.8802 2966.0957 1981.252 2966.0957 C 1980.006 2966.0957 1978.9449 2965.7784 1978.0684 2965.1445 C 1977.1918 2964.5107 1976.4737 2963.6488 1975.9141 2962.5586 C 1975.3579 2961.4431 1974.9419 2960.1384 1974.6641 2958.6426 C 1974.3896 2957.1214 1974.221 2955.4974 1974.1582 2953.7734 C 1974.1131 2952.0241 1974.1558 2950.2003 1974.2871 2948.2988 C 1974.4184 2946.3974 1974.6124 2944.4952 1974.8711 2942.5938 C 1975.3196 2939.2979 1975.9547 2936.3065 1976.7734 2933.6191 C 1977.5956 2930.9064 1978.5968 2928.587 1979.7793 2926.6602 C 1980.9618 2924.7333 1982.326 2923.2504 1983.8691 2922.2109 C 1985.4158 2921.1461 1987.1378 2920.6133 1989.0352 2920.6133 C 1990.7059 2920.6133 1992.2919 2920.9169 1993.7949 2921.5254 C 1995.3121 2922.1339 1996.8114 2922.9331 1998.291 2923.9219 L 1998.8418 2923.9219 C 1999.3374 2923.9219 1999.7904 2923.6672 2000.1992 2923.1602 C 2000.6115 2922.6277 2000.8802 2921.8931 2001.0078 2920.9551 C 2001.1079 2920.2198 2001.0476 2919.5734 2000.8262 2919.0156 C 2000.6082 2918.4325 2000.2758 2917.9134 1999.8281 2917.457 C 1999.3947 2917.0007 1998.874 2916.6069 1998.2676 2916.2773 C 1997.6753 2915.9478 1997.0421 2915.6696 1996.3652 2915.4414 C 1995.7059 2915.1879 1995.031 2914.9841 1994.3438 2914.832 C 1993.6707 2914.6799 1993.036 2914.5663 1992.4375 2914.4902 C 1991.8566 2914.3888 1991.3403 2914.3261 1990.8906 2914.3008 C 1990.4444 2914.2501 1990.1167 2914.2246 1989.9043 2914.2246 z M 2160.4766 2914.377 C 2160.0483 2914.4023 2159.728 2914.4141 2159.5156 2914.4141 L 2143.373 2914.4141 C 2143.1748 2914.4141 2142.9841 2914.5159 2142.8008 2914.7188 C 2142.6316 2914.9216 2142.4711 2915.1743 2142.3164 2915.4785 C 2142.1617 2915.7827 2142.0307 2916.1119 2141.9258 2916.4668 C 2141.8208 2916.8217 2141.7484 2917.1528 2141.707 2917.457 C 2141.6622 2917.7866 2141.6416 2918.1412 2141.6465 2918.5215 C 2141.6514 2918.9018 2141.6874 2919.2564 2141.7559 2919.5859 C 2141.8277 2919.8902 2141.9334 2920.1566 2142.0723 2920.3848 C 2142.2146 2920.5876 2142.4058 2920.6895 2142.6465 2920.6895 L 2151.4629 2921.1445 L 2151.4004 2921.6016 C 2150.5449 2927.8891 2149.4913 2934.0245 2148.2383 2940.0078 C 2146.9852 2945.9911 2145.5042 2952.0384 2143.7949 2958.1484 C 2143.6168 2958.833 2143.3605 2959.6185 2143.0273 2960.5059 C 2142.7118 2961.3679 2142.3849 2962.267 2142.0449 2963.2051 C 2141.7083 2964.1178 2141.3918 2965.0307 2141.0977 2965.9434 C 2140.8177 2966.8561 2140.6269 2967.6925 2140.5234 2968.4531 C 2140.4648 2968.8841 2140.4585 2969.2896 2140.5059 2969.6699 C 2140.5567 2970.0249 2140.6469 2970.3559 2140.7754 2970.6602 C 2140.9074 2970.939 2141.0676 2971.1663 2141.2559 2971.3438 C 2141.4475 2971.4959 2141.6636 2971.5723 2141.9043 2971.5723 C 2142.2724 2971.5723 2142.6216 2971.394 2142.9531 2971.0391 C 2143.3022 2970.6588 2143.6297 2970.1769 2143.9355 2969.5938 C 2144.2449 2968.9853 2144.5347 2968.3134 2144.8047 2967.5781 C 2145.0746 2966.8429 2145.316 2966.1083 2145.5293 2965.373 C 2145.7568 2964.6378 2145.9577 2963.9541 2146.1289 2963.3203 C 2146.3036 2962.6611 2146.4521 2962.1283 2146.5781 2961.7227 C 2146.6969 2961.2663 2146.8807 2960.5944 2147.1289 2959.707 C 2147.3805 2958.7943 2147.6336 2957.8697 2147.8887 2956.9316 C 2148.1614 2955.9682 2148.4087 2955.0926 2148.6289 2954.3066 C 2148.8526 2953.4954 2148.9934 2952.9762 2149.0527 2952.748 C 2149.1539 2952.317 2149.2925 2951.7215 2149.4668 2950.9609 C 2149.6552 2950.2004 2149.8432 2949.3874 2150.0312 2948.5254 C 2150.2369 2947.638 2150.4378 2946.7389 2150.6328 2945.8262 C 2150.8454 2944.8881 2151.0391 2944.0262 2151.2168 2943.2402 C 2151.398 2942.4289 2151.5501 2941.7316 2151.6719 2941.1484 C 2151.7937 2940.5653 2151.8738 2940.1853 2151.9121 2940.0078 L 2155.2227 2921.1445 L 2157.7285 2921.1445 C 2158.7338 2921.1445 2159.703 2921.2601 2160.6348 2921.4883 C 2161.5807 2921.7165 2162.5406 2921.8301 2163.5176 2921.8301 C 2164.0556 2921.8301 2164.5241 2921.5127 2164.9219 2920.8789 C 2165.3338 2920.2451 2165.6024 2919.4713 2165.7266 2918.5586 C 2165.8404 2917.722 2165.7908 2917.0383 2165.5801 2916.5059 C 2165.3835 2915.9735 2165.0943 2915.5542 2164.7109 2915.25 C 2164.3276 2914.9458 2163.8816 2914.7303 2163.375 2914.6035 C 2162.8684 2914.4768 2162.3637 2914.4023 2161.8574 2914.377 C 2161.3653 2914.3516 2160.9048 2914.3516 2160.4766 2914.377 z M 2051.8887 2914.5273 C 2051.5064 2914.5273 2050.9321 2914.5411 2050.1641 2914.5664 C 2049.396 2914.5918 2048.5431 2914.6682 2047.6055 2914.7949 C 2046.682 2914.9217 2045.7219 2915.1117 2044.7246 2915.3652 C 2043.7307 2915.5934 2042.8062 2915.9343 2041.9512 2916.3906 C 2041.0962 2916.847 2040.3665 2917.419 2039.7637 2918.1035 C 2039.175 2918.788 2038.8142 2919.6245 2038.6797 2920.6133 C 2038.552 2921.5513 2038.6014 2922.3232 2038.8301 2922.9316 C 2039.0622 2923.5148 2039.441 2923.8066 2039.9648 2923.8066 L 2040.3262 2923.8066 C 2040.6867 2923.6545 2041.1096 2923.4645 2041.5938 2923.2363 C 2042.092 2923.0082 2042.5945 2922.7927 2043.1035 2922.5898 C 2043.6301 2922.3617 2044.1366 2922.1854 2044.6211 2922.0586 C 2045.1232 2921.9065 2045.5576 2921.8301 2045.9258 2921.8301 C 2045.0772 2928.0669 2044.0066 2934.2141 2042.7148 2940.2734 C 2041.4231 2946.3328 2039.8834 2952.3409 2038.0957 2958.2988 C 2037.8437 2959.1101 2037.5299 2959.9603 2037.1543 2960.8477 C 2036.7963 2961.7097 2036.4352 2962.5971 2036.0703 2963.5098 C 2035.7054 2964.4225 2035.3688 2965.3353 2035.0605 2966.248 C 2034.7664 2967.1607 2034.5602 2968.0599 2034.4395 2968.9473 C 2034.3291 2969.7586 2034.3889 2970.4559 2034.6211 2971.0391 C 2034.8674 2971.6222 2035.2388 2971.9141 2035.7344 2971.9141 C 2036.0459 2971.9141 2036.3303 2971.8004 2036.5879 2971.5723 C 2036.8596 2971.3441 2037.1313 2971.015 2037.4023 2970.584 C 2038.2944 2968.6065 2039.1175 2966.5652 2039.8711 2964.4609 C 2040.6388 2962.3567 2041.3474 2960.2135 2041.998 2958.0332 C 2042.6521 2955.8275 2043.2653 2953.61 2043.8379 2951.3789 C 2044.4105 2949.1479 2044.9547 2946.9166 2045.4707 2944.6855 L 2045.5762 2944.6855 C 2045.7744 2944.6855 2045.9236 2944.7874 2046.0234 2944.9902 C 2046.1233 2945.1931 2046.2248 2945.3831 2046.3281 2945.5605 C 2046.4991 2945.8648 2046.7385 2946.2958 2047.0449 2946.8535 C 2047.3689 2947.3859 2047.6838 2947.9305 2047.9902 2948.4883 C 2048.3142 2949.0207 2048.6022 2949.5144 2048.8516 2949.9707 C 2049.101 2950.4271 2049.2462 2950.7072 2049.2891 2950.8086 C 2049.5886 2951.4171 2049.9167 2952.3809 2050.2754 2953.6992 C 2050.6517 2954.9922 2051.0284 2956.4497 2051.4023 2958.0723 C 2051.7904 2959.6948 2052.1731 2961.3541 2052.5508 2963.0527 C 2052.9426 2964.7514 2053.3041 2966.3107 2053.6348 2967.7305 C 2053.9655 2969.1502 2054.2668 2970.3178 2054.5391 2971.2305 C 2054.8289 2972.1178 2055.0586 2972.5605 2055.2285 2972.5605 C 2055.4551 2972.5605 2055.6849 2972.4841 2055.918 2972.332 C 2056.1476 2972.2053 2056.364 2972.0152 2056.5684 2971.7617 C 2056.7728 2971.5082 2056.9483 2971.2045 2057.0957 2970.8496 C 2057.2466 2970.4693 2057.3539 2970.0501 2057.416 2969.5938 C 2057.6713 2967.7176 2057.734 2965.8547 2057.6035 2964.0039 C 2057.4907 2962.1278 2057.2404 2960.3158 2056.8555 2958.5664 C 2056.4881 2956.7917 2056.0145 2955.0796 2055.4316 2953.4316 C 2054.8664 2951.7584 2054.2515 2950.1873 2053.5879 2948.7168 C 2052.9419 2947.221 2052.2806 2945.838 2051.6035 2944.5703 C 2050.9406 2943.3027 2050.3239 2942.1625 2049.7539 2941.1484 L 2049.8906 2940.9199 C 2050.4949 2940.641 2051.2666 2940.2865 2052.2031 2939.8555 C 2053.1396 2939.4245 2054.1351 2938.9171 2055.1914 2938.334 C 2056.2653 2937.7255 2057.3438 2937.0281 2058.4277 2936.2422 C 2059.5293 2935.4309 2060.5457 2934.518 2061.4766 2933.5039 C 2062.4109 2932.4644 2063.2133 2931.2989 2063.8848 2930.0059 C 2064.5563 2928.7129 2065.0014 2927.2671 2065.2188 2925.6699 C 2065.3981 2924.3516 2065.3947 2923.186 2065.207 2922.1719 C 2065.0228 2921.1324 2064.7065 2920.2332 2064.2578 2919.4727 C 2063.8126 2918.6867 2063.2576 2918.0265 2062.5938 2917.4941 C 2061.9334 2916.9364 2061.2163 2916.4799 2060.4434 2916.125 C 2059.688 2915.7447 2058.9001 2915.4528 2058.0781 2915.25 C 2057.2703 2915.0472 2056.4764 2914.8963 2055.6973 2914.7949 C 2054.9358 2914.6682 2054.2245 2914.5918 2053.5625 2914.5664 C 2052.9005 2914.5411 2052.3418 2914.5273 2051.8887 2914.5273 z M 2084.6445 2914.5273 C 2084.2622 2914.5273 2083.686 2914.5411 2082.918 2914.5664 C 2082.1499 2914.5918 2081.2989 2914.6682 2080.3613 2914.7949 C 2079.4379 2914.9217 2078.4758 2915.1117 2077.4785 2915.3652 C 2076.4847 2915.5934 2075.562 2915.9343 2074.707 2916.3906 C 2073.852 2916.847 2073.1224 2917.419 2072.5195 2918.1035 C 2071.9308 2918.788 2071.5681 2919.6245 2071.4336 2920.6133 C 2071.306 2921.5513 2071.3572 2922.3232 2071.5859 2922.9316 C 2071.8181 2923.5148 2072.1968 2923.8066 2072.7207 2923.8066 L 2073.082 2923.8066 C 2073.4425 2923.6545 2073.8635 2923.4645 2074.3477 2923.2363 C 2074.846 2923.0082 2075.3504 2922.7927 2075.8594 2922.5898 C 2076.386 2922.3617 2076.8905 2922.1854 2077.375 2922.0586 C 2077.8771 2921.9065 2078.3135 2921.8301 2078.6816 2921.8301 C 2077.833 2928.0669 2076.7624 2934.2141 2075.4707 2940.2734 C 2074.179 2946.3328 2072.6392 2952.3409 2070.8516 2958.2988 C 2070.5996 2959.1101 2070.2858 2959.9603 2069.9102 2960.8477 C 2069.5522 2961.7097 2069.1911 2962.5971 2068.8262 2963.5098 C 2068.4613 2964.4225 2068.1247 2965.3353 2067.8164 2966.248 C 2067.5223 2967.1607 2067.3141 2968.0599 2067.1934 2968.9473 C 2067.083 2969.7586 2067.1448 2970.4559 2067.377 2971.0391 C 2067.6233 2971.6222 2067.9947 2971.9141 2068.4902 2971.9141 C 2068.8017 2971.9141 2069.0862 2971.8004 2069.3438 2971.5723 C 2069.6155 2971.3441 2069.8852 2971.015 2070.1562 2970.584 C 2071.0483 2968.6065 2071.8714 2966.5652 2072.625 2964.4609 C 2073.3927 2962.3567 2074.1033 2960.2135 2074.7539 2958.0332 C 2075.408 2955.8275 2076.0212 2953.61 2076.5938 2951.3789 C 2077.1663 2949.1479 2077.7106 2946.9166 2078.2266 2944.6855 L 2078.332 2944.6855 C 2078.5303 2944.6855 2078.6795 2944.7874 2078.7793 2944.9902 C 2078.8791 2945.1931 2078.9807 2945.3831 2079.084 2945.5605 C 2079.255 2945.8648 2079.4944 2946.2958 2079.8008 2946.8535 C 2080.1248 2947.3859 2080.4397 2947.9305 2080.7461 2948.4883 C 2081.0701 2949.0207 2081.3561 2949.5144 2081.6055 2949.9707 C 2081.8549 2950.4271 2082.0021 2950.7072 2082.0449 2950.8086 C 2082.3444 2951.4171 2082.6726 2952.3809 2083.0312 2953.6992 C 2083.4075 2954.9922 2083.7824 2956.4497 2084.1562 2958.0723 C 2084.5443 2959.6948 2084.927 2961.3541 2085.3047 2963.0527 C 2085.6966 2964.7514 2086.058 2966.3107 2086.3887 2967.7305 C 2086.7194 2969.1502 2087.0207 2970.3178 2087.293 2971.2305 C 2087.5828 2972.1178 2087.8125 2972.5605 2087.9824 2972.5605 C 2088.209 2972.5605 2088.4388 2972.4841 2088.6719 2972.332 C 2088.9015 2972.2053 2089.1198 2972.0152 2089.3242 2971.7617 C 2089.5286 2971.5082 2089.7042 2971.2045 2089.8516 2970.8496 C 2090.0024 2970.4693 2090.1078 2970.0501 2090.1699 2969.5938 C 2090.4252 2967.7176 2090.4879 2965.8547 2090.3574 2964.0039 C 2090.2446 2962.1278 2089.9963 2960.3158 2089.6113 2958.5664 C 2089.244 2956.7917 2088.7684 2955.0796 2088.1855 2953.4316 C 2087.6203 2951.7584 2087.0074 2950.1873 2086.3438 2948.7168 C 2085.6977 2947.221 2085.0345 2945.838 2084.3574 2944.5703 C 2083.6945 2943.3027 2083.0797 2942.1625 2082.5098 2941.1484 L 2082.6465 2940.9199 C 2083.2508 2940.641 2084.0205 2940.2865 2084.957 2939.8555 C 2085.8935 2939.4245 2086.891 2938.9171 2087.9473 2938.334 C 2089.0212 2937.7255 2090.0997 2937.0281 2091.1836 2936.2422 C 2092.2851 2935.4309 2093.3015 2934.518 2094.2324 2933.5039 C 2095.1668 2932.4644 2095.9691 2931.2989 2096.6406 2930.0059 C 2097.3121 2928.7129 2097.7573 2927.2671 2097.9746 2925.6699 C 2098.154 2924.3516 2098.1486 2923.186 2097.9609 2922.1719 C 2097.7767 2921.1324 2097.4604 2920.2332 2097.0117 2919.4727 C 2096.5665 2918.6867 2096.0115 2918.0265 2095.3477 2917.4941 C 2094.6873 2916.9364 2093.9721 2916.4799 2093.1992 2916.125 C 2092.4439 2915.7447 2091.654 2915.4528 2090.832 2915.25 C 2090.0242 2915.0472 2089.2322 2914.8963 2088.4531 2914.7949 C 2087.6916 2914.6682 2086.9784 2914.5918 2086.3164 2914.5664 C 2085.6544 2914.5411 2085.0976 2914.5273 2084.6445 2914.5273 z M 2121.6836 2920.1953 C 2122.703 2920.1953 2123.5685 2920.6008 2124.2793 2921.4121 C 2125.0077 2922.198 2125.6081 2923.25 2126.0801 2924.5684 C 2126.552 2925.8867 2126.9114 2927.4069 2127.1582 2929.1309 C 2127.4085 2930.8295 2127.5662 2932.5789 2127.6328 2934.3789 C 2127.6994 2936.179 2127.6892 2937.9675 2127.6035 2939.7422 C 2127.5178 2941.5169 2127.3759 2943.1389 2127.1758 2944.6094 C 2126.9654 2946.1559 2126.6344 2947.7525 2126.1836 2949.4004 C 2125.7504 2951.023 2125.2148 2952.6215 2124.5762 2954.1934 C 2123.9517 2955.7652 2123.2449 2957.2599 2122.457 2958.6797 C 2121.6868 2960.0741 2120.8543 2961.3043 2119.959 2962.3691 C 2119.0778 2963.434 2118.1482 2964.2822 2117.1699 2964.916 C 2116.2093 2965.5245 2115.2333 2965.8301 2114.2422 2965.8301 C 2112.4015 2965.8301 2110.9271 2965.2208 2109.8184 2964.0039 C 2108.7096 2962.787 2107.8938 2961.1258 2107.373 2959.0215 C 2106.8665 2956.9172 2106.6273 2954.4587 2106.6562 2951.6445 C 2106.6852 2948.8304 2106.9164 2945.839 2107.3477 2942.6699 C 2107.5822 2940.9459 2107.947 2939.1966 2108.4434 2937.4219 C 2108.9573 2935.6218 2109.5702 2933.8842 2110.2793 2932.2109 C 2111.0025 2930.5377 2111.8015 2928.9783 2112.6777 2927.5332 C 2113.5574 2926.0627 2114.4889 2924.7835 2115.4727 2923.6934 C 2116.4564 2922.6032 2117.472 2921.753 2118.5176 2921.1445 C 2119.5808 2920.5107 2120.6358 2920.1953 2121.6836 2920.1953 z M 2022.8398 2920.5371 C 2024.0717 2920.5371 2024.9685 2921.019 2025.5312 2921.9824 C 2026.0974 2922.9205 2026.4493 2924.1879 2026.5859 2925.7852 C 2026.726 2927.357 2026.7126 2929.1828 2026.543 2931.2617 C 2026.3734 2933.3406 2026.1698 2935.5073 2025.9336 2937.7637 C 2025.9163 2937.8904 2025.753 2937.9923 2025.4453 2938.0684 C 2025.1518 2938.1444 2024.7691 2938.2071 2024.2949 2938.2578 C 2023.8208 2938.3085 2023.291 2938.3477 2022.707 2938.373 C 2022.1265 2938.373 2021.5551 2938.3593 2020.9922 2938.334 L 2019.9727 2938.334 C 2019.4664 2938.3086 2018.8803 2938.2969 2018.2148 2938.2969 L 2016.1328 2938.2969 C 2015.4142 2938.2715 2014.7538 2938.2461 2014.1484 2938.2207 C 2013.543 2938.1954 2013.0434 2938.1699 2012.6504 2938.1445 C 2012.2608 2938.0938 2012.0717 2938.0311 2012.082 2937.9551 C 2012.2511 2936.7128 2012.5105 2935.4179 2012.8633 2934.0742 C 2013.2302 2932.7305 2013.6717 2931.4141 2014.1875 2930.1211 C 2014.7033 2928.8281 2015.2818 2927.5979 2015.9219 2926.4316 C 2016.5761 2925.2654 2017.2661 2924.2507 2017.9922 2923.3887 C 2018.7359 2922.5013 2019.5185 2921.8039 2020.3379 2921.2969 C 2021.1573 2920.7898 2021.9903 2920.5371 2022.8398 2920.5371 z M 2051.4609 2921.2598 C 2051.6025 2921.2598 2051.9591 2921.297 2052.5293 2921.373 C 2053.1171 2921.4238 2053.7981 2921.5256 2054.5703 2921.6777 C 2055.346 2921.8045 2056.1571 2921.9828 2057.0039 2922.2109 C 2057.8507 2922.4391 2058.6191 2922.7173 2059.3105 2923.0469 C 2060.0161 2923.3765 2060.5811 2923.7565 2061.0039 2924.1875 C 2061.4408 2924.6185 2061.6208 2925.1122 2061.5449 2925.6699 C 2061.4794 2926.1516 2061.2233 2926.6727 2060.7793 2927.2305 C 2060.3529 2927.7629 2059.798 2928.3075 2059.1133 2928.8652 C 2058.4427 2929.423 2057.6881 2929.9813 2056.8477 2930.5391 C 2056.0248 2931.0715 2055.1749 2931.5906 2054.2988 2932.0977 C 2053.4369 2932.6047 2052.5923 2933.0866 2051.7656 2933.543 C 2050.9566 2933.974 2050.2259 2934.354 2049.5723 2934.6836 C 2048.9362 2934.9878 2048.4216 2935.2288 2048.0293 2935.4062 C 2047.637 2935.5837 2047.4341 2935.6719 2047.4199 2935.6719 L 2047.6309 2934.1133 C 2047.7071 2933.6569 2047.7932 2933.1378 2047.8867 2932.5547 C 2047.9944 2931.9716 2048.0993 2931.3506 2048.2031 2930.6914 C 2048.3211 2930.0322 2048.4337 2929.3603 2048.541 2928.6758 C 2048.6518 2927.9659 2048.7668 2927.2803 2048.8848 2926.6211 C 2049.1518 2925.0746 2049.4188 2923.478 2049.6855 2921.8301 L 2049.8535 2921.373 L 2050.0664 2921.373 C 2050.1973 2921.3477 2050.3477 2921.3359 2050.5176 2921.3359 C 2050.6909 2921.3106 2050.8613 2921.2969 2051.0312 2921.2969 C 2051.2046 2921.2715 2051.3477 2921.2598 2051.4609 2921.2598 z M 2084.2168 2921.2598 C 2084.3584 2921.2598 2084.715 2921.297 2085.2852 2921.373 C 2085.8729 2921.4238 2086.552 2921.5256 2087.3242 2921.6777 C 2088.0999 2921.8045 2088.911 2921.9828 2089.7578 2922.2109 C 2090.6046 2922.4391 2091.375 2922.7173 2092.0664 2923.0469 C 2092.772 2923.3765 2093.3351 2923.7565 2093.7578 2924.1875 C 2094.1947 2924.6185 2094.3747 2925.1122 2094.2988 2925.6699 C 2094.2333 2926.1516 2093.9792 2926.6727 2093.5352 2927.2305 C 2093.1087 2927.7629 2092.5539 2928.3075 2091.8691 2928.8652 C 2091.1986 2929.423 2090.442 2929.9813 2089.6016 2930.5391 C 2088.7787 2931.0715 2087.9288 2931.5906 2087.0527 2932.0977 C 2086.1908 2932.6047 2085.3482 2933.0866 2084.5215 2933.543 C 2083.7124 2933.974 2082.9799 2934.354 2082.3262 2934.6836 C 2081.6901 2934.9878 2081.1755 2935.2288 2080.7832 2935.4062 C 2080.3909 2935.5837 2080.188 2935.6719 2080.1738 2935.6719 L 2080.3867 2934.1133 C 2080.463 2933.6569 2080.5471 2933.1378 2080.6406 2932.5547 C 2080.7483 2931.9716 2080.8551 2931.3506 2080.959 2930.6914 C 2081.077 2930.0322 2081.1896 2929.3603 2081.2969 2928.6758 C 2081.4076 2927.9659 2081.5207 2927.2803 2081.6387 2926.6211 C 2081.9057 2925.0746 2082.1727 2923.478 2082.4395 2921.8301 L 2082.6094 2921.373 L 2082.8203 2921.373 C 2082.9512 2921.3477 2083.1016 2921.3359 2083.2715 2921.3359 C 2083.4448 2921.3106 2083.6172 2921.2969 2083.7871 2921.2969 C 2083.9605 2921.2715 2084.1035 2921.2598 2084.2168 2921.2598 z M 2191.9883 2958.9844 C 2191.5069 2958.9844 2191.0302 2959.1489 2190.5605 2959.4785 C 2190.0909 2959.8081 2189.6628 2960.2528 2189.2754 2960.8105 C 2188.888 2961.3683 2188.5512 2962.0265 2188.2637 2962.7871 C 2187.9796 2963.5223 2187.7794 2964.3216 2187.6621 2965.1836 C 2187.5448 2966.0456 2187.5249 2966.8566 2187.6055 2967.6172 C 2187.686 2968.3778 2187.8445 2969.036 2188.0801 2969.5938 C 2188.3157 2970.1515 2188.624 2970.5962 2189.0039 2970.9258 C 2189.3838 2971.2554 2189.8135 2971.4199 2190.2949 2971.4199 C 2190.7905 2971.4199 2191.2672 2971.2554 2191.7227 2970.9258 C 2192.1781 2970.5962 2192.5916 2970.1515 2192.9648 2969.5938 C 2193.3415 2969.0106 2193.6607 2968.3387 2193.9199 2967.5781 C 2194.1933 2966.8175 2194.3862 2966.0202 2194.5 2965.1836 C 2194.6138 2964.347 2194.6363 2963.5614 2194.5664 2962.8262 C 2194.5141 2962.0656 2194.3777 2961.4054 2194.1562 2960.8477 C 2193.9383 2960.2645 2193.6451 2959.8081 2193.2793 2959.4785 C 2192.9135 2959.1489 2192.4838 2958.9844 2191.9883 2958.9844 z "
       id="flowRoot4212-3-7-8-6" />
    <path
       style="color:#000000;fill:#ffffff;fill-opacity:1;fill-rule:nonzero;stroke:none;stroke-width:1px;marker:none;visibility:visible;display:inline;overflow:visible;filter:url(#filter4386);enable-background:accumulate"
       d="m 1130.9355,1420.8031 c 35.4075,36.6291 -35.3248,128.4463 -30.2477,159.6057 1.7037,10.4559 15.7023,38.6761 22.6642,45.772 11.7462,11.9725 21.4456,-4.2547 9.8057,104.7659 -3.501,24.5293 25.2149,48.129 50.2844,43.6327 9.8174,0.8259 26.4513,15.2015 11.9531,85.4934 -1.4817,20.5997 10.6511,44.0861 24.7163,47.1263 7.4113,1.0783 23.1477,14.7462 22.0529,39.0223 0.7506,-39.1086 -26.9408,-53.9278 -32.4145,-63.4487 -6.1657,-12.3612 1.0899,-53.8941 3.1944,-80.1354 2.1044,-26.2412 -13.9676,-38.466 -22.9688,-43.0948 -9.0012,-4.6289 -34.1277,-7.8027 -38.0808,-22.2547 -3.9532,-14.453 6.8533,-69.6072 1.5463,-96.9276 -5.3069,-27.3194 -24.4286,-31.5827 -28.3392,-57.191 -3.9106,-25.6084 32.0272,-85.6156 36.3362,-113.7853 5.8624,-29.8996 -3.1778,-66.3244 -3.1778,-66.3244 z"
       id="path3153"
       inkscape:connector-curvature="0"
       sodipodi:nodetypes="cssccccccsscssccc" />
    <path
       style="fill:#ffffff;fill-opacity:1;stroke:none"
       d="m 1007.433,1398.6408 c -3.861,-46.4931 20.0705,-44.0948 40.3789,-53.5113 22.0867,-10.241 208.5623,-12.5405 229.0502,12.9677 20.3919,25.3888 35.612,70.1459 -26.6542,90.5043 -62.2662,20.3583 -170.0174,13.4853 -187.3697,8.9773 -16.3991,-4.2603 -49.5229,-22.3534 -55.4052,-58.938 z"
       id="path3659"
       inkscape:connector-curvature="0"
       sodipodi:nodetypes="cssssc" />
    <flowRoot
       xml:space="preserve"
       id="flowRoot2987-4-9-3"
       style="font-style:normal;font-variant:normal;font-weight:normal;font-stretch:normal;line-height:0.01%;font-family:Lavi;-inkscape-font-specification:Lavi;text-align:center;letter-spacing:0px;word-spacing:0px;text-anchor:middle;fill:#d41400;fill-opacity:1;stroke:none;"
       transform="matrix(0.73821363,0,0,1,838.19342,1104.3342)"><flowRegion
         id="flowRegion2989-5-4-5"
         style="fill:#d41400;"><rect
           id="rect2991-7-9-6"
           width="602.40173"
           height="310.73996"
           x="120.55251"
           y="265.53046"
           style="font-style:normal;font-variant:normal;font-weight:normal;font-stretch:normal;font-family:Lavi;-inkscape-font-specification:Lavi;text-align:center;text-anchor:middle;fill:#d41400;" /></flowRegion><flowPara
         style="font-size:48px;line-height:1.25;text-align:center;text-anchor:middle;fill:#d41400;"
         id="flowPara3030-8">CARROT !</flowPara></flowRoot>  </g>
</svg>
